<svg width="892" height="298" viewBox="0 0 892 298" fill="none" xmlns="http://www.w3.org/2000/svg">
<g clip-path="url(#clip0_574_1064)">
<path d="M820.967 0.0009685H71.0734C68.34 0.0009685 65.6393 0.0009685 62.9131 0.0158685C60.631 0.0307685 58.3671 0.074053 56.063 0.110484C51.0576 0.169352 46.064 0.609457 41.1256 1.42697C36.1941 2.26229 31.417 3.83709 26.956 6.09812C22.5005 8.37828 18.4294 11.3411 14.8903 14.8791C11.3326 18.4072 8.36707 22.4852 6.1076 26.9563C3.8419 31.4184 2.27085 36.2001 1.44872 41.136C0.61878 46.0657 0.17218 51.0522 0.112931 56.0509C0.0437562 58.3351 0.036451 60.6268 0 62.9113V235.113C0.036451 237.426 0.0437562 239.667 0.112931 241.981C0.172198 246.979 0.618798 251.965 1.44872 256.895C2.26858 261.834 3.83972 266.618 6.1076 271.082C8.36604 275.539 11.332 279.6 14.8903 283.108C18.4159 286.662 22.4897 289.627 26.956 291.89C31.417 294.157 36.1935 295.741 41.1256 296.589C46.0649 297.4 51.058 297.84 56.063 297.906C58.3671 297.957 60.631 297.986 62.9131 297.986C65.6392 298.001 68.3401 298.001 71.0734 298.001H820.967C823.646 298.001 826.368 298.001 829.047 297.986C831.318 297.986 833.648 297.957 835.919 297.906C840.915 297.844 845.898 297.404 850.827 296.589C855.775 295.735 860.569 294.151 865.052 291.89C869.514 289.626 873.584 286.661 877.106 283.108C880.656 279.586 883.628 275.528 885.914 271.082C888.165 266.615 889.721 261.831 890.529 256.895C891.361 251.965 891.823 246.98 891.913 241.981C891.942 239.667 891.942 237.426 891.942 235.113C892 232.406 892 229.714 892 226.964V71.0451C892 68.3169 892 65.6104 891.942 62.9113C891.942 60.6268 891.942 58.3351 891.913 56.0506C891.823 51.0515 891.361 46.0661 890.529 41.1357C889.719 36.2026 888.163 31.4214 885.914 26.956C881.313 17.9942 874.017 10.6994 865.052 6.09745C860.569 3.84195 855.775 2.26756 850.827 1.4263C845.899 0.605184 840.915 0.164926 835.919 0.109441C833.648 0.0730845 831.318 0.0294275 829.047 0.0149C826.368 0 823.646 0.0009685 820.967 0.0009685Z" fill="#A6A6A6"/>
<path d="M62.9494 291.482C60.6783 291.482 58.462 291.453 56.2087 291.402C51.5407 291.342 46.8837 290.935 42.2757 290.187C37.9791 289.448 33.8167 288.072 29.9261 286.105C26.0711 284.155 22.555 281.598 19.5125 278.532C16.4261 275.502 13.8564 271.987 11.9055 268.128C9.93299 264.243 8.56793 260.08 7.85782 255.782C7.09097 251.163 6.67607 246.494 6.6167 241.813C6.56944 240.242 6.50757 235.01 6.50757 235.01V62.9111C6.50757 62.9111 6.57346 57.7601 6.61707 56.2468C6.67392 51.5733 7.0864 46.9108 7.85096 42.2999C8.56238 37.9902 9.9285 33.8145 11.902 29.9172C13.8458 26.0605 16.4012 22.5434 19.4691 19.5025C22.5335 16.4327 26.0608 13.8623 29.9224 11.8851C33.8041 9.92488 37.9586 8.55884 42.2466 7.83274C46.8697 7.07706 51.5429 6.6685 56.227 6.6105L62.9531 6.51953H829.01L835.817 6.61415C840.458 6.66927 845.089 7.07418 849.67 7.82544C854.001 8.56065 858.199 9.93622 862.125 11.9069C869.861 15.8915 876.156 22.1955 880.127 29.9354C882.069 33.8057 883.414 37.9474 884.116 42.2199C884.89 46.8687 885.323 51.5677 885.412 56.2796C885.434 58.3894 885.434 60.6557 885.434 62.9111C885.492 65.7049 885.492 68.364 885.492 71.0449V226.964C885.492 229.67 885.492 232.311 885.434 234.974C885.434 237.397 885.433 239.616 885.404 241.9C885.317 246.528 884.892 251.143 884.131 255.709C883.435 260.038 882.077 264.234 880.105 268.15C878.14 271.968 875.586 275.452 872.535 278.474C869.49 281.556 865.967 284.128 862.103 286.091C858.188 288.073 853.997 289.454 849.67 290.187C845.062 290.939 840.405 291.346 835.736 291.402C833.553 291.453 831.267 291.482 829.047 291.482L820.967 291.497L62.9494 291.482Z" fill="black"/>
<path d="M184.632 151.241C184.712 145.023 186.365 138.926 189.436 133.517C192.508 128.109 196.898 123.565 202.198 120.308C198.831 115.501 194.389 111.546 189.224 108.756C184.06 105.965 178.316 104.417 172.448 104.233C159.93 102.92 147.795 111.719 141.416 111.719C134.914 111.719 125.093 104.364 114.518 104.581C107.677 104.802 101.011 106.79 95.1677 110.352C89.3245 113.913 84.504 118.927 81.176 124.904C66.7595 149.849 77.5129 186.511 91.3226 206.675C98.2319 216.549 106.307 227.579 116.873 227.188C127.212 226.759 131.074 220.598 143.554 220.598C155.919 220.598 159.542 227.188 170.322 226.939C181.417 226.759 188.407 217.021 195.074 207.054C200.039 200.018 203.859 192.243 206.393 184.015C199.947 181.29 194.447 176.729 190.577 170.901C186.707 165.073 184.64 158.235 184.632 151.241Z" fill="white"/>
<path d="M164.27 90.9719C170.319 83.7141 173.3 74.3853 172.578 64.9668C163.336 65.9369 154.799 70.3515 148.668 77.3309C145.67 80.7405 143.374 84.7072 141.912 89.0041C140.449 93.301 139.848 97.844 140.143 102.373C144.765 102.421 149.338 101.419 153.518 99.4445C157.697 97.4696 161.373 94.5727 164.27 90.9719Z" fill="white"/>
<path d="M315.33 202.192H280.046L271.572 227.198H256.628L290.048 134.684H305.575L338.995 227.198H323.795L315.33 202.192ZM283.7 190.653H311.668L297.881 150.071H297.495L283.7 190.653Z" fill="white"/>
<path d="M411.171 193.476C411.171 214.437 399.946 227.903 383.007 227.903C378.716 228.128 374.448 227.14 370.693 225.053C366.938 222.966 363.846 219.864 361.773 216.103H361.452V249.511H347.599V159.747H361.008V170.966H361.263C363.432 167.223 366.576 164.137 370.36 162.037C374.144 159.938 378.426 158.902 382.752 159.042C399.88 159.042 411.171 172.574 411.171 193.476ZM396.933 193.476C396.933 179.82 389.871 170.842 379.098 170.842C368.513 170.842 361.394 180.009 361.394 193.476C361.394 207.067 368.513 216.168 379.098 216.168C389.871 216.168 396.933 207.256 396.933 193.476Z" fill="white"/>
<path d="M485.451 193.476C485.451 214.437 474.226 227.903 457.287 227.903C452.996 228.128 448.728 227.14 444.973 225.053C441.218 222.966 438.126 219.864 436.053 216.102H435.732V249.511H421.879V159.747H435.288V170.966H435.543C437.712 167.223 440.855 164.137 444.639 162.037C448.423 159.938 452.706 158.902 457.032 159.042C474.161 159.042 485.451 172.574 485.451 193.476ZM471.212 193.476C471.212 179.82 464.151 170.842 453.378 170.842C442.793 170.842 435.674 180.009 435.674 193.476C435.674 207.067 442.793 216.168 453.378 216.168C464.151 216.168 471.212 207.256 471.212 193.476Z" fill="white"/>
<path d="M534.544 201.421C535.571 210.595 544.488 216.619 556.674 216.619C568.35 216.619 576.751 210.595 576.751 202.322C576.751 195.142 571.684 190.842 559.688 187.895L547.691 185.007C530.693 180.904 522.802 172.959 522.802 160.067C522.802 144.105 536.721 133.141 556.485 133.141C576.044 133.141 589.453 144.105 589.905 160.067H575.921C575.084 150.834 567.447 145.261 556.288 145.261C545.128 145.261 537.492 150.9 537.492 159.107C537.492 165.647 542.37 169.496 554.301 172.442L564.499 174.945C583.491 179.434 591.382 187.059 591.382 200.591C591.382 217.899 577.588 228.739 555.647 228.739C535.119 228.739 521.259 218.153 520.364 201.42L534.544 201.421Z" fill="white"/>
<path d="M621.279 143.785V159.747H634.113V170.711H621.279V207.896C621.279 213.673 623.849 216.364 629.491 216.364C631.014 216.338 632.535 216.231 634.048 216.044V226.943C631.511 227.416 628.933 227.631 626.353 227.583C612.69 227.583 607.361 222.454 607.361 209.373V170.711H597.548V159.747H607.361V143.785H621.279Z" fill="white"/>
<path d="M641.546 193.476C641.546 172.254 654.052 158.918 673.554 158.918C693.121 158.918 705.569 172.253 705.569 193.476C705.569 214.757 693.186 228.034 673.554 228.034C653.928 228.034 641.546 214.757 641.546 193.476ZM691.454 193.476C691.454 178.918 684.779 170.326 673.554 170.326C662.329 170.326 655.661 178.984 655.661 193.476C655.661 208.092 662.329 216.619 673.554 216.619C684.779 216.619 691.454 208.092 691.454 193.476Z" fill="white"/>
<path d="M716.99 159.747H730.202V171.227H730.523C731.417 167.642 733.519 164.473 736.475 162.254C739.431 160.034 743.062 158.9 746.756 159.041C748.353 159.035 749.945 159.209 751.502 159.558V172.508C749.487 171.892 747.385 171.61 745.278 171.671C743.266 171.59 741.259 171.944 739.397 172.711C737.535 173.477 735.86 174.637 734.489 176.112C733.117 177.586 732.082 179.339 731.452 181.252C730.823 183.164 730.615 185.189 730.843 187.19V227.197H716.99L716.99 159.747Z" fill="white"/>
<path d="M815.372 207.387C813.509 219.631 801.578 228.034 786.313 228.034C766.68 228.034 754.494 214.887 754.494 193.796C754.494 172.639 766.745 158.918 785.73 158.918C804.402 158.918 816.144 171.737 816.144 192.188V196.932H768.478V197.769C768.258 200.251 768.569 202.752 769.39 205.105C770.211 207.458 771.524 209.609 773.241 211.416C774.959 213.223 777.041 214.644 779.35 215.585C781.658 216.526 784.141 216.965 786.633 216.874C789.907 217.18 793.192 216.422 796 214.713C798.808 213.004 800.989 210.434 802.218 207.387L815.372 207.387ZM768.543 187.256H802.284C802.408 185.024 802.07 182.79 801.289 180.695C800.509 178.6 799.304 176.689 797.75 175.081C796.195 173.474 794.325 172.205 792.257 171.354C790.189 170.503 787.967 170.089 785.73 170.137C783.474 170.123 781.238 170.556 779.151 171.411C777.063 172.266 775.166 173.526 773.568 175.117C771.97 176.709 770.703 178.601 769.841 180.684C768.979 182.768 768.538 185.001 768.543 187.256Z" fill="white"/>
<path d="M281.964 65.0465C284.868 64.8382 287.783 65.2767 290.497 66.3304C293.211 67.3841 295.657 69.0267 297.659 71.1397C299.661 73.2527 301.169 75.7834 302.074 78.5494C302.979 81.3154 303.259 84.2476 302.893 87.1346C302.893 101.336 295.213 109.499 281.964 109.499H265.898V65.0465H281.964ZM272.806 103.213H281.192C283.268 103.337 285.344 102.997 287.272 102.217C289.199 101.438 290.928 100.239 292.333 98.7075C293.738 97.176 294.784 95.3507 295.394 93.3644C296.004 91.3781 296.164 89.2808 295.86 87.2252C296.142 85.1777 295.966 83.0934 295.346 81.1216C294.727 79.1499 293.679 77.3395 292.277 75.8202C290.875 74.301 289.154 73.1104 287.238 72.3338C285.321 71.5573 283.257 71.2139 281.192 71.3285H272.806V103.213Z" fill="white"/>
<path d="M310.696 92.7107C310.485 90.5061 310.738 88.2818 311.437 86.1804C312.137 84.079 313.268 82.1469 314.758 80.508C316.249 78.8691 318.065 77.5597 320.092 76.6636C322.118 75.7676 324.31 75.3047 326.525 75.3047C328.741 75.3047 330.933 75.7676 332.959 76.6636C334.986 77.5597 336.802 78.8691 338.293 80.508C339.783 82.1469 340.914 84.079 341.614 86.1804C342.313 88.2818 342.566 90.5061 342.355 92.7107C342.57 94.9176 342.32 97.145 341.623 99.2498C340.925 101.355 339.795 103.29 338.304 104.932C336.813 106.574 334.995 107.887 332.966 108.785C330.938 109.683 328.744 110.146 326.525 110.146C324.307 110.146 322.113 109.683 320.084 108.785C318.056 107.887 316.238 106.574 314.747 104.932C313.256 103.29 312.126 101.355 311.428 99.2498C310.731 97.145 310.481 94.9176 310.696 92.7107ZM335.541 92.7107C335.541 85.439 332.273 81.1865 326.536 81.1865C320.778 81.1865 317.539 85.439 317.539 92.7108C317.539 100.041 320.779 104.26 326.536 104.26C332.273 104.26 335.541 100.012 335.541 92.7107Z" fill="white"/>
<path d="M384.437 109.498H377.566L370.628 84.7907H370.104L363.196 109.498H356.39L347.137 75.9512H353.856L359.869 101.549H360.364L367.265 75.9512H373.62L380.521 101.549H381.045L387.029 75.9512H393.653L384.437 109.498Z" fill="white"/>
<path d="M401.435 75.9521H407.812V81.2813H408.307C409.147 79.3672 410.563 77.7627 412.359 76.6913C414.154 75.62 416.239 75.1352 418.324 75.3045C419.957 75.1818 421.597 75.4279 423.122 76.0246C424.647 76.6213 426.018 77.5534 427.134 78.7516C428.25 79.9499 429.081 81.3838 429.567 82.9469C430.053 84.5101 430.181 86.1625 429.942 87.7818V109.499H423.317V89.4443C423.317 84.0533 420.973 81.3722 416.074 81.3722C414.965 81.3206 413.858 81.5092 412.829 81.9252C411.8 82.3411 410.873 82.9745 410.112 83.782C409.351 84.5895 408.773 85.5519 408.419 86.6033C408.065 87.6547 407.942 88.7703 408.059 89.8735V109.499H401.435L401.435 75.9521Z" fill="white"/>
<path d="M440.497 62.8555H447.121V109.498H440.497V62.8555Z" fill="white"/>
<path d="M456.33 92.7094C456.119 90.5046 456.371 88.2802 457.071 86.1787C457.771 84.0772 458.902 82.145 460.393 80.5061C461.883 78.8672 463.7 77.5577 465.727 76.6617C467.753 75.7656 469.945 75.3027 472.161 75.3027C474.377 75.3027 476.568 75.7656 478.595 76.6617C480.622 77.5577 482.438 78.8672 483.929 80.5061C485.419 82.145 486.551 84.0772 487.251 86.1787C487.95 88.2802 488.203 90.5046 487.992 92.7094C488.207 94.9163 487.957 97.1438 487.259 99.2486C486.561 101.353 485.431 103.289 483.94 104.931C482.449 106.573 480.631 107.885 478.602 108.783C476.573 109.681 474.379 110.145 472.161 110.145C469.942 110.145 467.748 109.681 465.72 108.783C463.691 107.885 461.873 106.573 460.382 104.931C458.891 103.289 457.76 101.353 457.062 99.2486C456.365 97.1438 456.115 94.9163 456.33 92.7094ZM481.175 92.7094C481.175 85.4377 477.906 81.1852 472.17 81.1852C466.412 81.1852 463.173 85.4377 463.173 92.7095C463.173 100.039 466.412 104.259 472.17 104.259C477.906 104.259 481.175 100.01 481.175 92.7094Z" fill="white"/>
<path d="M494.966 100.012C494.966 93.9733 499.464 90.492 507.45 89.9973L516.542 89.4735V86.5779C516.542 83.0347 514.198 81.034 509.67 81.034C505.972 81.034 503.41 82.3909 502.675 84.7627H496.261C496.938 79.0006 502.362 75.3047 509.976 75.3047C518.391 75.3047 523.137 79.4916 523.137 86.5779V109.499H516.76V104.785H516.236C515.172 106.476 513.679 107.854 511.907 108.78C510.136 109.705 508.151 110.144 506.154 110.052C504.745 110.198 503.321 110.048 501.973 109.611C500.626 109.173 499.385 108.459 498.331 107.513C497.277 106.567 496.433 105.411 495.853 104.119C495.273 102.827 494.971 101.428 494.966 100.012ZM516.542 97.1453V94.3407L508.345 94.8645C503.723 95.1737 501.626 96.7452 501.626 99.7026C501.626 102.722 504.247 104.479 507.851 104.479C508.906 104.586 509.973 104.479 510.987 104.166C512.001 103.852 512.941 103.338 513.752 102.654C514.563 101.969 515.228 101.129 515.707 100.183C516.186 99.2365 516.47 98.2036 516.542 97.1453Z" fill="white"/>
<path d="M531.844 92.7101C531.844 82.1099 537.296 75.3947 545.776 75.3947C547.874 75.2981 549.956 75.8003 551.779 76.8425C553.602 77.8847 555.09 79.4239 556.07 81.2802H556.565V62.8555H563.189V109.498H556.841V104.198H556.317C555.262 106.042 553.722 107.562 551.864 108.593C550.006 109.625 547.901 110.129 545.777 110.051C537.238 110.051 531.844 103.336 531.844 92.7101ZM538.686 92.7101C538.686 99.8255 542.042 104.107 547.655 104.107C553.238 104.107 556.689 99.7637 556.689 92.7393C556.689 85.7476 553.202 81.3423 547.655 81.3423C542.079 81.3423 538.686 85.653 538.686 92.7101Z" fill="white"/>
<path d="M590.596 92.7107C590.385 90.5061 590.638 88.2818 591.337 86.1804C592.037 84.079 593.168 82.1469 594.658 80.508C596.149 78.8691 597.965 77.5597 599.992 76.6636C602.018 75.7676 604.21 75.3047 606.426 75.3047C608.642 75.3047 610.833 75.7676 612.859 76.6636C614.886 77.5597 616.702 78.8691 618.193 80.508C619.683 82.1469 620.815 84.079 621.514 86.1804C622.214 88.2818 622.466 90.5061 622.255 92.7107C622.47 94.9176 622.221 97.145 621.523 99.2498C620.825 101.355 619.695 103.29 618.204 104.932C616.713 106.574 614.895 107.887 612.867 108.785C610.838 109.683 608.644 110.146 606.426 110.146C604.207 110.146 602.013 109.683 599.985 108.785C597.956 107.887 596.138 106.574 594.647 104.932C593.157 103.29 592.026 101.355 591.328 99.2498C590.631 97.145 590.381 94.9176 590.596 92.7107ZM615.441 92.7107C615.441 85.439 612.173 81.1865 606.437 81.1865C600.678 81.1865 597.439 85.439 597.439 92.7108C597.439 100.041 600.679 104.26 606.437 104.26C612.173 104.26 615.441 100.012 615.441 92.7107Z" fill="white"/>
<path d="M631.143 75.9521H637.52V81.2813H638.015C638.855 79.3672 640.271 77.7627 642.067 76.6913C643.862 75.62 645.947 75.1352 648.032 75.3045C649.665 75.1818 651.305 75.4279 652.83 76.0246C654.355 76.6213 655.726 77.5534 656.842 78.7516C657.958 79.9499 658.789 81.3838 659.275 82.9469C659.761 84.5101 659.889 86.1625 659.65 87.7818V109.499H653.025V89.4443C653.025 84.0533 650.681 81.3722 645.782 81.3722C644.673 81.3206 643.566 81.5092 642.537 81.9252C641.508 82.3411 640.581 82.9745 639.82 83.782C639.059 84.5895 638.481 85.5519 638.127 86.6033C637.773 87.6547 637.65 88.7703 637.767 89.8735V109.499H631.143V75.9521Z" fill="white"/>
<path d="M697.081 67.5996V76.1045H704.353V81.6811H697.081V98.9311C697.081 102.445 698.529 103.984 701.827 103.984C702.671 103.981 703.515 103.93 704.353 103.831V109.346C703.163 109.558 701.958 109.672 700.75 109.684C693.383 109.684 690.449 107.094 690.449 100.626V81.6809H685.12V76.1042H690.449V67.5996H697.081Z" fill="white"/>
<path d="M713.401 62.8555H719.967V81.3423H720.492C721.372 79.4103 722.827 77.7967 724.659 76.7213C726.49 75.646 728.609 75.1611 730.726 75.3328C732.351 75.2444 733.975 75.5155 735.483 76.1268C736.991 76.738 738.345 77.6742 739.449 78.8687C740.553 80.0633 741.38 81.4866 741.87 83.0372C742.361 84.5878 742.503 86.2275 742.286 87.8392V109.498H735.655V89.4725C735.655 84.1141 733.158 81.4004 728.477 81.4004C727.339 81.3071 726.194 81.4635 725.122 81.8587C724.05 82.254 723.078 82.8785 722.273 83.6886C721.468 84.4987 720.85 85.4748 720.462 86.5486C720.073 87.6224 719.925 88.7681 720.026 89.9053V109.498H713.402L713.401 62.8555Z" fill="white"/>
<path d="M780.911 100.44C780.011 103.506 778.061 106.158 775.403 107.932C772.744 109.706 769.545 110.49 766.367 110.145C764.156 110.203 761.958 109.78 759.927 108.905C757.895 108.029 756.079 106.722 754.604 105.075C753.129 103.427 752.03 101.479 751.384 99.364C750.737 97.2496 750.559 95.0199 750.862 92.8297C750.567 90.6328 750.748 88.3983 751.393 86.2775C752.038 84.1567 753.131 82.1991 754.598 80.5372C756.066 78.8753 757.873 77.5479 759.899 76.6449C761.924 75.7419 764.12 75.2844 766.338 75.3033C775.677 75.3033 781.312 81.6805 781.312 92.2148V94.525H757.61V94.896C757.506 96.1271 757.661 97.3662 758.064 98.534C758.468 99.7018 759.111 100.772 759.952 101.677C760.794 102.582 761.816 103.301 762.952 103.788C764.088 104.276 765.313 104.52 766.549 104.506C768.133 104.697 769.739 104.411 771.161 103.687C772.583 102.963 773.757 101.833 774.535 100.44L780.911 100.44ZM757.61 89.6285H774.563C774.647 88.5026 774.494 87.3717 774.114 86.3085C773.734 85.2452 773.136 84.2731 772.358 83.4547C771.58 82.6363 770.639 81.9896 769.596 81.5562C768.553 81.1228 767.431 80.9122 766.301 80.9381C765.156 80.9237 764.019 81.1387 762.957 81.5704C761.896 82.0021 760.932 82.6417 760.122 83.4516C759.312 84.2616 758.672 85.2253 758.241 86.2862C757.809 87.347 757.595 88.4835 757.61 89.6285Z" fill="white"/>
</g>
<defs>
<clipPath id="clip0_574_1064">
<rect width="892" height="298" fill="white"/>
</clipPath>
</defs>
</svg>
