<svg width="1001" height="298" viewBox="0 0 1001 298" fill="none" xmlns="http://www.w3.org/2000/svg">
<path d="M960.445 296.16H38.7135C18.4354 296.16 1.84424 279.605 1.84424 259.37V38.6293C1.84424 18.3948 18.4354 1.83921 38.7135 1.83921H960.445C980.723 1.83921 997.314 18.3948 997.314 38.6293V259.37C997.314 279.605 980.723 296.16 960.445 296.16Z" fill="black"/>
<path d="M960.445 1.84116H38.7135C18.4354 1.84116 1.84424 18.3967 1.84424 38.6313V259.372C1.84424 279.607 18.4354 296.162 38.7135 296.162H960.445C980.723 296.162 997.314 279.607 997.314 259.372V38.6313C997.314 18.3967 980.723 1.84116 960.445 1.84116ZM960.445 7.72758C977.522 7.72758 991.415 21.5901 991.415 38.6313V259.372C991.415 276.413 977.522 290.276 960.445 290.276H38.7135C21.6357 290.276 7.74334 276.413 7.74334 259.372V38.6313C7.74334 21.5901 21.6357 7.72758 38.7135 7.72758H960.445Z" fill="#A6A6A6"/>
<path d="M351.5 77.2104C351.5 83.3764 349.672 88.2842 346.007 91.9485C341.841 96.3044 336.421 98.4824 329.755 98.4824C323.362 98.4824 317.935 96.275 313.473 91.8528C308.997 87.438 306.771 81.9563 306.771 75.4224C306.771 68.8811 308.997 63.4067 313.473 58.9845C317.935 54.5697 323.362 52.355 329.755 52.355C332.918 52.355 335.956 52.973 338.832 54.2092C341.715 55.4453 344.023 57.0862 345.756 59.1391L341.863 63.0241C338.935 59.5364 334.902 57.7852 329.755 57.7852C325.095 57.7852 321.068 59.4187 317.669 62.6856C314.27 65.96 312.574 70.1982 312.574 75.4224C312.574 80.6392 314.27 84.8848 317.669 88.1518C321.068 91.4261 325.095 93.0522 329.755 93.0522C334.695 93.0522 338.81 91.4114 342.113 88.1223C344.252 85.9811 345.483 83.0085 345.815 79.1823H329.755V73.8772H351.191C351.397 75.0324 351.5 76.1435 351.5 77.2104Z" fill="white"/>
<path d="M351.5 77.2104C351.5 83.3764 349.672 88.2842 346.007 91.9485C341.841 96.3044 336.421 98.4824 329.755 98.4824C323.362 98.4824 317.935 96.275 313.473 91.8528C308.997 87.438 306.771 81.9563 306.771 75.4224C306.771 68.8811 308.997 63.4067 313.473 58.9845C317.935 54.5697 323.362 52.355 329.755 52.355C332.918 52.355 335.956 52.973 338.832 54.2092C341.715 55.4453 344.023 57.0862 345.756 59.1391L341.863 63.0241C338.935 59.5364 334.902 57.7852 329.755 57.7852C325.095 57.7852 321.068 59.4187 317.669 62.6856C314.27 65.96 312.574 70.1982 312.574 75.4224C312.574 80.6392 314.27 84.8848 317.669 88.1518C321.068 91.4261 325.095 93.0522 329.755 93.0522C334.695 93.0522 338.81 91.4114 342.113 88.1223C344.252 85.9811 345.483 83.0085 345.815 79.1823H329.755V73.8772H351.191C351.397 75.0324 351.5 76.1435 351.5 77.2104Z" stroke="white" stroke-width="0.266667" stroke-miterlimit="10"/>
<path d="M385.489 58.7708H365.343V72.7658H383.512V78.0709H365.343V92.0659H385.489V97.4961H359.658V53.3479H385.489V58.7708Z" fill="white"/>
<path d="M385.489 58.7708H365.343V72.7658H383.512V78.0709H365.343V92.0659H385.489V97.4961H359.658V53.3479H385.489V58.7708Z" stroke="white" stroke-width="0.266667" stroke-miterlimit="10"/>
<path d="M409.461 97.4941H403.776V58.7689H391.417V53.346H421.819V58.7689H409.461V97.4941Z" fill="white"/>
<path d="M409.461 97.4941H403.776V58.7689H391.417V53.346H421.819V58.7689H409.461V97.4941Z" stroke="white" stroke-width="0.266667" stroke-miterlimit="10"/>
<path d="M443.817 53.346H449.502V97.4941H443.817V53.346Z" fill="white" stroke="white" stroke-width="0.266667" stroke-miterlimit="10"/>
<path d="M474.717 97.4941H469.031V58.7689H456.673V53.346H487.075V58.7689H474.717V97.4941Z" fill="white"/>
<path d="M474.717 97.4941H469.031V58.7689H456.673V53.346H487.075V58.7689H474.717V97.4941Z" stroke="white" stroke-width="0.266667" stroke-miterlimit="10"/>
<path d="M516.385 88.0929C519.659 91.404 523.663 93.0522 528.405 93.0522C533.146 93.0522 537.15 91.404 540.424 88.0929C543.698 84.7818 545.342 80.5583 545.342 75.4224C545.342 70.2865 543.698 66.0556 540.424 62.7519C537.15 59.4407 533.146 57.7852 528.405 57.7852C523.663 57.7852 519.659 59.4407 516.385 62.7519C513.119 66.0556 511.474 70.2865 511.474 75.4224C511.474 80.5583 513.119 84.7818 516.385 88.0929ZM544.627 91.7866C540.277 96.2529 534.872 98.4824 528.405 98.4824C521.938 98.4824 516.533 96.2529 512.19 91.7866C507.839 87.3277 505.671 81.8754 505.671 75.4224C505.671 68.9694 507.839 63.5097 512.19 59.0508C516.533 54.5918 521.938 52.355 528.405 52.355C534.835 52.355 540.225 54.5992 544.598 59.0802C548.963 63.5612 551.146 69.0062 551.146 75.4224C551.146 81.8754 548.97 87.3277 544.627 91.7866Z" fill="white"/>
<path d="M516.385 88.0929C519.659 91.404 523.663 93.0522 528.405 93.0522C533.146 93.0522 537.15 91.404 540.424 88.0929C543.698 84.7818 545.342 80.5583 545.342 75.4224C545.342 70.2865 543.698 66.0556 540.424 62.7519C537.15 59.4407 533.146 57.7852 528.405 57.7852C523.663 57.7852 519.659 59.4407 516.385 62.7519C513.119 66.0556 511.474 70.2865 511.474 75.4224C511.474 80.5583 513.119 84.7818 516.385 88.0929ZM544.627 91.7866C540.277 96.2529 534.872 98.4824 528.405 98.4824C521.938 98.4824 516.533 96.2529 512.19 91.7866C507.839 87.3277 505.671 81.8754 505.671 75.4224C505.671 68.9694 507.839 63.5097 512.19 59.0508C516.533 54.5918 521.938 52.355 528.405 52.355C534.835 52.355 540.225 54.5992 544.598 59.0802C548.963 63.5612 551.146 69.0062 551.146 75.4224C551.146 81.8754 548.97 87.3277 544.627 91.7866Z" stroke="white" stroke-width="0.266667" stroke-miterlimit="10"/>
<path d="M559.124 97.4941V53.346H566.04L587.542 87.6859H587.793L587.542 79.18V53.346H593.235V97.4941H587.299L564.801 61.484H564.558L564.801 69.9972V97.4941H559.124Z" fill="white"/>
<path d="M559.124 97.4941V53.346H566.04L587.542 87.6859H587.793L587.542 79.18V53.346H593.235V97.4941H587.299L564.801 61.484H564.558L564.801 69.9972V97.4941H559.124Z" stroke="white" stroke-width="0.266667" stroke-miterlimit="10"/>
<path d="M790.373 222.581H804.133V130.598H790.373V222.581ZM914.306 163.731L898.533 203.612H898.061L881.691 163.731H866.87L891.417 219.469L877.429 250.475H891.771L929.606 163.731H914.306ZM836.276 212.133C831.763 212.133 825.48 209.888 825.48 204.318C825.48 197.225 833.304 194.503 840.066 194.503C846.112 194.503 848.966 195.805 852.638 197.578C851.569 206.099 844.217 212.133 836.276 212.133ZM837.935 161.723C827.973 161.723 817.649 166.101 813.387 175.806L825.598 180.89C828.209 175.806 833.068 174.143 838.171 174.143C845.286 174.143 852.52 178.403 852.638 185.982V186.924C850.146 185.504 844.814 183.377 838.289 183.377C825.126 183.377 811.721 190.596 811.721 204.083C811.721 216.393 822.516 224.325 834.609 224.325C843.863 224.325 848.966 220.182 852.166 215.326H852.638V222.426H865.918V187.159C865.918 170.832 853.707 161.723 837.935 161.723ZM752.899 174.93H733.329V143.401H752.899C763.186 143.401 769.026 151.9 769.026 159.162C769.026 166.292 763.186 174.93 752.899 174.93ZM752.546 130.598H719.577V222.581H733.329V187.733H752.546C767.795 187.733 782.786 176.711 782.786 159.162C782.786 141.613 767.795 130.598 752.546 130.598ZM572.764 212.147C563.259 212.147 555.302 204.208 555.302 193.303C555.302 182.281 563.259 174.217 572.764 174.217C582.151 174.217 589.51 182.281 589.51 193.303C589.51 204.208 582.151 212.147 572.764 212.147ZM588.566 168.882H588.087C584.997 165.21 579.061 161.892 571.577 161.892C555.892 161.892 541.521 175.637 541.521 193.303C541.521 210.845 555.892 224.479 571.577 224.479C579.061 224.479 584.997 221.161 588.087 217.364H588.566V221.875C588.566 233.846 582.151 240.248 571.812 240.248C563.377 240.248 558.149 234.199 556.01 229.1L544.013 234.082C547.457 242.381 556.608 252.572 571.812 252.572C587.969 252.572 601.632 243.088 601.632 219.976V163.783H588.566V168.882ZM611.137 222.581H624.919V130.591H611.137V222.581ZM645.227 192.236C644.873 180.147 654.613 173.981 661.619 173.981C667.09 173.981 671.721 176.704 673.262 180.618L645.227 192.236ZM687.995 181.803C685.385 174.813 677.421 161.892 661.147 161.892C644.991 161.892 631.57 174.57 631.57 193.186C631.57 210.727 644.873 224.479 662.688 224.479C677.067 224.479 685.385 215.709 688.828 210.609L678.136 203.494C674.574 208.711 669.7 212.147 662.688 212.147C655.683 212.147 650.691 208.947 647.483 202.67L689.418 185.357L687.995 181.803ZM353.9 171.494V184.768H385.733C384.782 192.236 382.29 197.689 378.492 201.478C373.854 206.106 366.606 211.205 353.9 211.205C334.293 211.205 318.971 195.437 318.971 175.88C318.971 156.315 334.293 140.554 353.9 140.554C364.475 140.554 372.195 144.704 377.895 150.038L387.282 140.671C379.318 133.085 368.751 127.272 353.9 127.272C327.052 127.272 304.481 149.089 304.481 175.88C304.481 202.67 327.052 224.479 353.9 224.479C368.39 224.479 379.318 219.733 387.872 210.845C396.669 202.074 399.397 189.749 399.397 179.787C399.397 176.704 399.161 173.863 398.682 171.494H353.9ZM435.595 212.147C426.09 212.147 417.891 204.326 417.891 193.186C417.891 181.921 426.09 174.217 435.595 174.217C445.093 174.217 453.293 181.921 453.293 193.186C453.293 204.326 445.093 212.147 435.595 212.147ZM435.595 161.892C418.245 161.892 404.109 175.048 404.109 193.186C404.109 211.205 418.245 224.479 435.595 224.479C452.939 224.479 467.074 211.205 467.074 193.186C467.074 175.048 452.939 161.892 435.595 161.892ZM504.268 212.147C494.763 212.147 486.563 204.326 486.563 193.186C486.563 181.921 494.763 174.217 504.268 174.217C513.773 174.217 521.965 181.921 521.965 193.186C521.965 204.326 513.773 212.147 504.268 212.147ZM504.268 161.892C486.925 161.892 472.789 175.048 472.789 193.186C472.789 211.205 486.925 224.479 504.268 224.479C521.611 224.479 535.747 211.205 535.747 193.186C535.747 175.048 521.611 161.892 504.268 161.892Z" fill="white"/>
<path d="M78.7905 57.3063C76.6521 59.5726 75.3838 63.0897 75.3838 67.6443V230.374C75.3838 234.936 76.6521 238.446 78.7905 240.712L79.3362 241.242L170.698 150.084V149.009V147.928L79.3362 56.7692L78.7905 57.3063Z" fill="url(#paint0_linear_571_177)"/>
<path d="M170.697 147.925V149.007V150.081L201.143 180.484L201.836 180.094L237.917 159.639C248.218 153.789 248.218 144.224 237.917 138.389L201.836 117.926L201.151 117.536L170.697 147.925Z" fill="url(#paint1_linear_571_177)"/>
<path d="M78.7891 240.711C82.1884 244.295 87.7999 244.743 94.1193 241.167L201.837 180.088L170.697 149.008L78.7891 240.711Z" fill="url(#paint2_linear_571_177)"/>
<path d="M78.7891 57.3086L170.697 149.012L201.837 117.931L94.1193 56.8598C91.155 55.1748 88.3456 54.3802 85.8532 54.3802C83.0217 54.3802 80.5957 55.4029 78.7891 57.3086Z" fill="url(#paint3_linear_571_177)"/>
<defs>
<linearGradient id="paint0_linear_571_177" x1="162.592" y1="65.9278" x2="39.1073" y2="189.678" gradientUnits="userSpaceOnUse">
<stop stop-color="#00A0FF"/>
<stop offset="0.00657445" stop-color="#00A1FF"/>
<stop offset="0.2601" stop-color="#00BEFF"/>
<stop offset="0.5122" stop-color="#00D2FF"/>
<stop offset="0.7604" stop-color="#00DFFF"/>
<stop offset="1" stop-color="#00E3FF"/>
</linearGradient>
<linearGradient id="paint1_linear_571_177" x1="251.332" y1="149.01" x2="72.9081" y2="149.01" gradientUnits="userSpaceOnUse">
<stop stop-color="#FFE000"/>
<stop offset="0.4087" stop-color="#FFBD00"/>
<stop offset="0.7754" stop-color="#FFA500"/>
<stop offset="1" stop-color="#FF9C00"/>
</linearGradient>
<linearGradient id="paint2_linear_571_177" x1="184.913" y1="165.896" x2="17.4575" y2="333.711" gradientUnits="userSpaceOnUse">
<stop stop-color="#FF3A44"/>
<stop offset="1" stop-color="#C31162"/>
</linearGradient>
<linearGradient id="paint3_linear_571_177" x1="55.6523" y1="3.1402" x2="130.428" y2="78.0769" gradientUnits="userSpaceOnUse">
<stop stop-color="#32A071"/>
<stop offset="0.0685" stop-color="#2DA771"/>
<stop offset="0.4762" stop-color="#15CF74"/>
<stop offset="0.8009" stop-color="#06E775"/>
<stop offset="1" stop-color="#00F076"/>
</linearGradient>
</defs>
</svg>
