<svg width="928" height="339" viewBox="0 0 928 339" fill="none" xmlns="http://www.w3.org/2000/svg">
<rect x="2" y="2" width="924" height="335" rx="58" fill="black"/>
<rect x="2" y="2" width="924" height="335" rx="58" stroke="white" stroke-width="4"/>
<g clip-path="url(#clip0_83_18)">
<path d="M313 169.5C313 101.154 257.636 45.5169 189.405 45.0237C189.329 45.0237 189.252 44.9998 189.175 44.9998H187.83C187.748 44.9998 187.677 45.0237 187.595 45.0237C119.36 45.5169 64.0001 101.154 64.0001 169.5C64.0001 191.694 69.866 212.534 80.0894 230.601C80.1851 230.782 80.2378 230.979 80.3431 231.161L81.0183 232.334C81.1189 232.511 81.2577 232.65 81.3679 232.822C103.074 269.406 142.962 294 188.5 294C234.038 294 273.926 269.411 295.632 232.822C295.743 232.645 295.886 232.506 295.992 232.324L296.657 231.166C296.758 230.988 296.81 230.797 296.906 230.62C307.129 212.548 313 191.704 313 169.5ZM303.423 169.5C303.423 184.32 300.574 198.475 295.441 211.495C293.846 209.412 291.826 207.645 289.388 206.39L212.146 166.564C211.332 159.995 207.898 154.277 202.866 150.47L206.998 63.6891C207.127 60.931 206.596 58.2877 205.571 55.8552C260.873 64.1249 303.423 111.933 303.423 169.5ZM287.353 228.015C286.185 229.767 284.494 231.012 282.488 231.496C280.3 232.027 278.02 231.63 276.067 230.375L206.725 185.809L211.734 177.128L284.992 214.899C287.071 215.972 288.565 217.748 289.197 219.894C289.771 221.857 289.537 223.94 288.593 225.846C288.191 226.573 287.779 227.301 287.353 228.015ZM100.929 230.371C98.9607 231.64 96.6718 232.047 94.5026 231.51C92.5058 231.031 90.8107 229.772 89.6375 228.005C89.2114 227.287 88.7996 226.564 88.3878 225.836C87.4636 223.949 87.229 221.866 87.8084 219.898C88.4404 217.739 89.9296 215.967 91.9983 214.899L165.257 177.128L170.266 185.809L100.929 230.371ZM174.135 169.5C174.135 161.58 180.58 155.134 188.5 155.134C196.42 155.134 202.866 161.58 202.866 169.5C202.866 177.42 196.42 183.865 188.5 183.865C180.58 183.865 174.135 177.42 174.135 169.5ZM183.491 145.557L179.57 63.2294C179.46 60.8927 180.25 58.7139 181.796 57.0906C183.285 55.5296 185.34 54.6629 187.586 54.6006C187.892 54.5958 188.194 54.5767 188.5 54.5767C188.807 54.5767 189.108 54.5958 189.41 54.6006C191.646 54.6629 193.696 55.5296 195.194 57.105C196.746 58.7331 197.541 60.907 197.431 63.2294L193.509 145.557H183.491ZM171.415 55.8504C170.395 58.2829 169.868 60.9214 170.002 63.6795L174.135 150.47C169.102 154.282 165.669 159.999 164.855 166.564L87.612 206.39C85.1699 207.649 83.154 209.416 81.5642 211.509C76.431 198.484 73.577 184.325 73.577 169.5C73.577 111.938 116.123 64.1297 171.415 55.8504ZM188.5 284.423C152.213 284.423 119.824 267.5 98.7452 241.154C101.317 240.81 103.821 239.9 106.105 238.434L179.11 191.517C181.997 192.748 185.167 193.442 188.5 193.442C191.833 193.442 195.003 192.748 197.89 191.512L270.895 238.425C273.179 239.895 275.684 240.795 278.265 241.14C257.186 267.496 224.792 284.423 188.5 284.423Z" fill="white"/>
</g>
<path d="M386.328 107.182H395.903V139.129C395.903 142.082 395.239 144.647 393.912 146.825C392.599 149.003 390.772 150.681 388.431 151.859C386.089 153.037 383.367 153.626 380.265 153.626C377.505 153.626 375 153.141 372.748 152.172C370.51 151.188 368.736 149.696 367.423 147.698C366.111 145.684 365.462 143.156 365.477 140.113H375.119C375.149 141.321 375.395 142.358 375.857 143.223C376.335 144.073 376.983 144.73 377.804 145.192C378.639 145.639 379.623 145.863 380.757 145.863C381.95 145.863 382.957 145.609 383.777 145.102C384.612 144.58 385.246 143.82 385.679 142.82C386.111 141.821 386.328 140.591 386.328 139.129V107.182ZM419.259 153.671C415.784 153.671 412.779 152.933 410.243 151.456C407.723 149.965 405.776 147.891 404.404 145.237C403.032 142.567 402.346 139.472 402.346 135.952C402.346 132.402 403.032 129.3 404.404 126.645C405.776 123.976 407.723 121.902 410.243 120.426C412.779 118.934 415.784 118.189 419.259 118.189C422.734 118.189 425.732 118.934 428.253 120.426C430.788 121.902 432.742 123.976 434.114 126.645C435.487 129.3 436.173 132.402 436.173 135.952C436.173 139.472 435.487 142.567 434.114 145.237C432.742 147.891 430.788 149.965 428.253 151.456C425.732 152.933 422.734 153.671 419.259 153.671ZM419.304 146.288C420.885 146.288 422.205 145.841 423.264 144.946C424.323 144.036 425.121 142.798 425.658 141.232C426.21 139.666 426.486 137.884 426.486 135.885C426.486 133.886 426.21 132.104 425.658 130.538C425.121 128.972 424.323 127.734 423.264 126.824C422.205 125.915 420.885 125.46 419.304 125.46C417.708 125.46 416.366 125.915 415.277 126.824C414.203 127.734 413.39 128.972 412.839 130.538C412.302 132.104 412.033 133.886 412.033 135.885C412.033 137.884 412.302 139.666 412.839 141.232C413.39 142.798 414.203 144.036 415.277 144.946C416.366 145.841 417.708 146.288 419.304 146.288ZM442.37 153V118.636H451.9V153H442.37ZM447.157 114.206C445.741 114.206 444.525 113.737 443.511 112.797C442.511 111.842 442.012 110.701 442.012 109.374C442.012 108.062 442.511 106.935 443.511 105.996C444.525 105.041 445.741 104.564 447.157 104.564C448.574 104.564 449.782 105.041 450.782 105.996C451.796 106.935 452.303 108.062 452.303 109.374C452.303 110.701 451.796 111.842 450.782 112.797C449.782 113.737 448.574 114.206 447.157 114.206ZM469.065 133.133V153H459.535V118.636H468.618V124.699H469.021C469.781 122.7 471.056 121.119 472.846 119.956C474.636 118.778 476.806 118.189 479.357 118.189C481.743 118.189 483.824 118.711 485.598 119.755C487.373 120.799 488.753 122.29 489.737 124.229C490.722 126.153 491.214 128.45 491.214 131.12V153H481.683V132.82C481.698 130.717 481.161 129.076 480.072 127.898C478.984 126.705 477.485 126.108 475.576 126.108C474.293 126.108 473.159 126.384 472.175 126.936C471.206 127.488 470.445 128.293 469.893 129.352C469.356 130.396 469.08 131.657 469.065 133.133ZM528.833 153.671C525.357 153.671 522.352 152.933 519.817 151.456C517.296 149.965 515.35 147.891 513.977 145.237C512.605 142.567 511.919 139.472 511.919 135.952C511.919 132.402 512.605 129.3 513.977 126.645C515.35 123.976 517.296 121.902 519.817 120.426C522.352 118.934 525.357 118.189 528.833 118.189C532.308 118.189 535.306 118.934 537.826 120.426C540.362 121.902 542.316 123.976 543.688 126.645C545.06 129.3 545.746 132.402 545.746 135.952C545.746 139.472 545.06 142.567 543.688 145.237C542.316 147.891 540.362 149.965 537.826 151.456C535.306 152.933 532.308 153.671 528.833 153.671ZM528.877 146.288C530.458 146.288 531.778 145.841 532.837 144.946C533.896 144.036 534.694 142.798 535.231 141.232C535.783 139.666 536.059 137.884 536.059 135.885C536.059 133.886 535.783 132.104 535.231 130.538C534.694 128.972 533.896 127.734 532.837 126.824C531.778 125.915 530.458 125.46 528.877 125.46C527.281 125.46 525.939 125.915 524.85 126.824C523.776 127.734 522.964 128.972 522.412 130.538C521.875 132.104 521.606 133.886 521.606 135.885C521.606 137.884 521.875 139.666 522.412 141.232C522.964 142.798 523.776 144.036 524.85 144.946C525.939 145.841 527.281 146.288 528.877 146.288ZM573.98 138.368V118.636H583.51V153H574.36V146.758H574.002C573.226 148.771 571.936 150.39 570.132 151.613C568.342 152.836 566.157 153.447 563.577 153.447C561.28 153.447 559.259 152.925 557.514 151.881C555.769 150.837 554.404 149.353 553.42 147.429C552.45 145.505 551.958 143.201 551.943 140.516V118.636H561.474V138.816C561.488 140.844 562.033 142.448 563.107 143.626C564.181 144.804 565.62 145.393 567.425 145.393C568.573 145.393 569.647 145.132 570.646 144.61C571.645 144.073 572.451 143.283 573.062 142.239C573.689 141.195 573.995 139.905 573.98 138.368ZM591.133 153V118.636H600.373V124.632H600.731C601.358 122.499 602.409 120.888 603.886 119.799C605.362 118.696 607.062 118.144 608.986 118.144C609.464 118.144 609.978 118.174 610.53 118.233C611.082 118.293 611.567 118.375 611.984 118.48V126.936C611.537 126.802 610.918 126.683 610.127 126.578C609.337 126.474 608.614 126.422 607.957 126.422C606.555 126.422 605.303 126.727 604.199 127.339C603.11 127.935 602.245 128.771 601.604 129.845C600.977 130.918 600.664 132.156 600.664 133.558V153H591.133ZM631.493 153V118.636H641.023V153H631.493ZM636.28 114.206C634.864 114.206 633.648 113.737 632.634 112.797C631.635 111.842 631.135 110.701 631.135 109.374C631.135 108.062 631.635 106.935 632.634 105.996C633.648 105.041 634.864 104.564 636.28 104.564C637.697 104.564 638.905 105.041 639.905 105.996C640.919 106.935 641.426 108.062 641.426 109.374C641.426 110.701 640.919 111.842 639.905 112.797C638.905 113.737 637.697 114.206 636.28 114.206ZM690.941 130.091C690.941 135.087 689.994 139.338 688.1 142.843C686.221 146.348 683.655 149.025 680.404 150.874C677.167 152.709 673.528 153.626 669.486 153.626C665.415 153.626 661.761 152.701 658.524 150.852C655.287 149.003 652.73 146.325 650.85 142.82C648.971 139.315 648.031 135.072 648.031 130.091C648.031 125.094 648.971 120.844 650.85 117.339C652.73 113.834 655.287 111.164 658.524 109.329C661.761 107.48 665.415 106.555 669.486 106.555C673.528 106.555 677.167 107.48 680.404 109.329C683.655 111.164 686.221 113.834 688.1 117.339C689.994 120.844 690.941 125.094 690.941 130.091ZM681.12 130.091C681.12 126.854 680.635 124.125 679.666 121.902C678.711 119.68 677.361 117.995 675.616 116.846C673.871 115.698 671.828 115.124 669.486 115.124C667.145 115.124 665.101 115.698 663.356 116.846C661.611 117.995 660.254 119.68 659.285 121.902C658.33 124.125 657.853 126.854 657.853 130.091C657.853 133.327 658.33 136.057 659.285 138.279C660.254 140.501 661.611 142.187 663.356 143.335C665.101 144.483 667.145 145.058 669.486 145.058C671.828 145.058 673.871 144.483 675.616 143.335C677.361 142.187 678.711 140.501 679.666 138.279C680.635 136.057 681.12 133.327 681.12 130.091ZM722.973 120.359C722.794 118.554 722.026 117.152 720.668 116.153C719.311 115.154 717.469 114.654 715.142 114.654C713.561 114.654 712.227 114.878 711.138 115.325C710.049 115.758 709.214 116.362 708.632 117.137C708.065 117.913 707.782 118.793 707.782 119.777C707.752 120.597 707.924 121.313 708.296 121.925C708.684 122.536 709.214 123.066 709.885 123.513C710.556 123.946 711.332 124.326 712.212 124.654C713.092 124.967 714.031 125.236 715.03 125.46L719.147 126.444C721.146 126.891 722.98 127.488 724.651 128.234C726.321 128.98 727.768 129.897 728.991 130.986C730.214 132.074 731.161 133.357 731.832 134.834C732.518 136.31 732.869 138.003 732.883 139.912C732.869 142.716 732.153 145.147 730.736 147.205C729.334 149.249 727.305 150.837 724.651 151.971C722.011 153.089 718.826 153.649 715.098 153.649C711.399 153.649 708.177 153.082 705.433 151.948C702.703 150.815 700.571 149.137 699.034 146.915C697.513 144.677 696.715 141.911 696.641 138.614H706.015C706.119 140.151 706.559 141.433 707.334 142.462C708.125 143.477 709.176 144.245 710.489 144.767C711.816 145.274 713.315 145.527 714.986 145.527C716.626 145.527 718.051 145.289 719.259 144.812C720.482 144.334 721.429 143.671 722.1 142.82C722.771 141.97 723.107 140.993 723.107 139.89C723.107 138.861 722.801 137.995 722.19 137.294C721.593 136.594 720.713 135.997 719.55 135.505C718.401 135.013 716.992 134.565 715.321 134.162L710.332 132.91C706.469 131.97 703.419 130.501 701.182 128.502C698.945 126.504 697.834 123.812 697.849 120.426C697.834 117.652 698.572 115.228 700.064 113.155C701.57 111.082 703.636 109.464 706.261 108.3C708.886 107.137 711.869 106.555 715.209 106.555C718.61 106.555 721.578 107.137 724.114 108.3C726.664 109.464 728.648 111.082 730.065 113.155C731.481 115.228 732.212 117.629 732.257 120.359H722.973ZM366.237 191.168V183.182H403.867V191.168H389.84V229H380.265V191.168H366.237ZM420.563 229.671C417.028 229.671 413.985 228.955 411.435 227.523C408.899 226.076 406.945 224.033 405.573 221.393C404.201 218.738 403.515 215.599 403.515 211.975C403.515 208.44 404.201 205.337 405.573 202.668C406.945 199.998 408.877 197.917 411.368 196.426C413.873 194.934 416.811 194.189 420.182 194.189C422.449 194.189 424.56 194.554 426.514 195.285C428.482 196.001 430.197 197.082 431.659 198.529C433.136 199.976 434.284 201.795 435.104 203.988C435.925 206.165 436.335 208.716 436.335 211.639V214.257H407.318V208.35H427.364C427.364 206.978 427.065 205.763 426.469 204.704C425.872 203.645 425.044 202.817 423.985 202.22C422.941 201.609 421.726 201.303 420.339 201.303C418.892 201.303 417.609 201.639 416.491 202.31C415.387 202.966 414.522 203.853 413.896 204.972C413.269 206.076 412.949 207.306 412.934 208.663V214.279C412.934 215.979 413.247 217.448 413.873 218.686C414.515 219.924 415.417 220.879 416.58 221.55C417.744 222.221 419.123 222.557 420.719 222.557C421.778 222.557 422.748 222.407 423.628 222.109C424.507 221.811 425.261 221.363 425.887 220.767C426.514 220.17 426.991 219.439 427.319 218.574L436.134 219.156C435.686 221.274 434.769 223.123 433.382 224.704C432.01 226.27 430.235 227.493 428.057 228.373C425.895 229.238 423.396 229.671 420.563 229.671ZM471.146 204.435L462.421 204.972C462.272 204.226 461.951 203.555 461.459 202.959C460.967 202.347 460.318 201.862 459.512 201.504C458.722 201.132 457.775 200.945 456.671 200.945C455.195 200.945 453.949 201.258 452.935 201.885C451.921 202.496 451.414 203.317 451.414 204.346C451.414 205.166 451.742 205.859 452.398 206.426C453.054 206.993 454.18 207.448 455.776 207.791L461.996 209.044C465.337 209.73 467.827 210.834 469.468 212.355C471.109 213.876 471.929 215.875 471.929 218.351C471.929 220.603 471.265 222.579 469.938 224.279C468.625 225.98 466.821 227.307 464.524 228.261C462.242 229.201 459.609 229.671 456.626 229.671C452.077 229.671 448.453 228.724 445.754 226.83C443.069 224.921 441.495 222.325 441.033 219.044L450.407 218.552C450.69 219.939 451.376 220.998 452.465 221.729C453.554 222.445 454.949 222.803 456.649 222.803C458.319 222.803 459.662 222.482 460.676 221.841C461.705 221.184 462.227 220.342 462.242 219.313C462.227 218.448 461.862 217.739 461.146 217.187C460.43 216.62 459.326 216.188 457.835 215.89L451.884 214.704C448.528 214.033 446.03 212.869 444.389 211.214C442.763 209.558 441.95 207.448 441.95 204.883C441.95 202.675 442.547 200.774 443.74 199.178C444.948 197.582 446.641 196.351 448.819 195.486C451.011 194.621 453.576 194.189 456.515 194.189C460.855 194.189 464.27 195.106 466.761 196.94C469.267 198.775 470.728 201.273 471.146 204.435ZM496.208 194.636V201.795H475.514V194.636H496.208ZM480.212 186.403H489.743V218.44C489.743 219.32 489.877 220.006 490.146 220.498C490.414 220.976 490.787 221.311 491.264 221.505C491.756 221.699 492.323 221.796 492.964 221.796C493.412 221.796 493.859 221.759 494.307 221.684C494.754 221.595 495.097 221.527 495.336 221.483L496.835 228.575C496.358 228.724 495.686 228.895 494.821 229.089C493.956 229.298 492.905 229.425 491.667 229.47C489.37 229.559 487.356 229.253 485.626 228.552C483.911 227.851 482.576 226.763 481.622 225.286C480.667 223.809 480.197 221.945 480.212 219.693V186.403ZM520.896 194.636V201.795H499.687V194.636H520.896ZM504.542 229V192.153C504.542 189.662 505.027 187.596 505.996 185.956C506.981 184.315 508.323 183.085 510.023 182.264C511.723 181.444 513.655 181.034 515.818 181.034C517.279 181.034 518.614 181.146 519.822 181.369C521.045 181.593 521.955 181.794 522.552 181.973L520.851 189.133C520.478 189.013 520.016 188.901 519.464 188.797C518.927 188.693 518.375 188.64 517.809 188.64C516.407 188.64 515.43 188.969 514.878 189.625C514.326 190.266 514.05 191.168 514.05 192.332V229H504.542ZM536.249 183.182V229H526.718V183.182H536.249ZM543.883 229V194.636H553.414V229H543.883ZM548.671 190.206C547.254 190.206 546.039 189.737 545.024 188.797C544.025 187.842 543.526 186.701 543.526 185.374C543.526 184.062 544.025 182.935 545.024 181.996C546.039 181.041 547.254 180.564 548.671 180.564C550.088 180.564 551.296 181.041 552.295 181.996C553.31 182.935 553.817 184.062 553.817 185.374C553.817 186.701 553.31 187.842 552.295 188.797C551.296 189.737 550.088 190.206 548.671 190.206ZM576.53 242.602C573.443 242.602 570.795 242.177 568.588 241.327C566.395 240.492 564.65 239.351 563.353 237.904C562.055 236.457 561.213 234.831 560.825 233.027L569.639 231.841C569.908 232.527 570.333 233.168 570.915 233.765C571.496 234.362 572.264 234.839 573.219 235.197C574.188 235.57 575.367 235.756 576.754 235.756C578.827 235.756 580.535 235.249 581.877 234.235C583.234 233.236 583.913 231.558 583.913 229.201V222.915H583.51C583.093 223.869 582.466 224.771 581.631 225.622C580.796 226.472 579.722 227.165 578.409 227.702C577.097 228.239 575.531 228.508 573.711 228.508C571.131 228.508 568.782 227.911 566.664 226.718C564.561 225.51 562.883 223.668 561.63 221.192C560.392 218.701 559.773 215.554 559.773 211.751C559.773 207.858 560.407 204.607 561.675 201.997C562.943 199.386 564.628 197.433 566.731 196.135C568.849 194.837 571.168 194.189 573.689 194.189C575.613 194.189 577.224 194.517 578.521 195.173C579.819 195.814 580.863 196.62 581.653 197.589C582.459 198.544 583.078 199.483 583.51 200.408H583.868V194.636H593.332V229.335C593.332 232.259 592.616 234.705 591.184 236.673C589.752 238.642 587.768 240.119 585.233 241.103C582.712 242.102 579.811 242.602 576.53 242.602ZM576.731 221.348C578.268 221.348 579.565 220.968 580.624 220.207C581.698 219.432 582.518 218.328 583.085 216.896C583.667 215.45 583.958 213.72 583.958 211.706C583.958 209.693 583.674 207.948 583.107 206.471C582.541 204.98 581.72 203.824 580.647 203.003C579.573 202.183 578.268 201.773 576.731 201.773C575.165 201.773 573.845 202.198 572.772 203.048C571.698 203.883 570.885 205.047 570.333 206.538C569.781 208.03 569.505 209.752 569.505 211.706C569.505 213.69 569.781 215.405 570.333 216.852C570.9 218.283 571.713 219.395 572.772 220.185C573.845 220.961 575.165 221.348 576.731 221.348ZM610.446 209.133V229H600.916V183.182H610.178V200.699H610.58C611.356 198.671 612.609 197.082 614.339 195.934C616.069 194.77 618.239 194.189 620.849 194.189C623.236 194.189 625.316 194.711 627.091 195.755C628.881 196.784 630.268 198.268 631.252 200.207C632.252 202.131 632.744 204.435 632.729 207.12V229H623.198V208.82C623.213 206.702 622.676 205.054 621.588 203.876C620.514 202.698 619.007 202.108 617.068 202.108C615.771 202.108 614.622 202.384 613.623 202.936C612.639 203.488 611.863 204.293 611.296 205.352C610.745 206.396 610.461 207.657 610.446 209.133ZM658.507 194.636V201.795H637.813V194.636H658.507ZM642.511 186.403H652.042V218.44C652.042 219.32 652.176 220.006 652.444 220.498C652.713 220.976 653.086 221.311 653.563 221.505C654.055 221.699 654.622 221.796 655.263 221.796C655.711 221.796 656.158 221.759 656.606 221.684C657.053 221.595 657.396 221.527 657.635 221.483L659.134 228.575C658.656 228.724 657.985 228.895 657.12 229.089C656.255 229.298 655.204 229.425 653.966 229.47C651.669 229.559 649.655 229.253 647.925 228.552C646.21 227.851 644.875 226.763 643.921 225.286C642.966 223.809 642.496 221.945 642.511 219.693V186.403ZM679.476 229V183.182H697.821C701.191 183.182 704.003 183.681 706.255 184.681C708.507 185.68 710.2 187.067 711.333 188.842C712.467 190.602 713.034 192.63 713.034 194.927C713.034 196.717 712.676 198.29 711.96 199.647C711.244 200.99 710.26 202.094 709.007 202.959C707.769 203.809 706.352 204.413 704.756 204.771V205.218C706.501 205.293 708.134 205.785 709.656 206.695C711.192 207.605 712.437 208.88 713.392 210.52C714.346 212.146 714.824 214.085 714.824 216.337C714.824 218.768 714.219 220.938 713.011 222.847C711.818 224.742 710.051 226.241 707.709 227.344C705.368 228.448 702.482 229 699.051 229H679.476ZM689.163 221.08H697.06C699.76 221.08 701.728 220.565 702.966 219.536C704.204 218.492 704.823 217.105 704.823 215.375C704.823 214.107 704.517 212.989 703.906 212.019C703.294 211.05 702.422 210.289 701.288 209.737C700.17 209.185 698.835 208.91 697.284 208.91H689.163V221.08ZM689.163 202.355H696.344C697.672 202.355 698.85 202.123 699.879 201.661C700.923 201.184 701.743 200.513 702.34 199.647C702.951 198.782 703.257 197.746 703.257 196.538C703.257 194.882 702.668 193.547 701.49 192.533C700.326 191.519 698.671 191.012 696.523 191.012H689.163V202.355ZM736.608 229.671C733.074 229.671 730.031 228.955 727.481 227.523C724.945 226.076 722.991 224.033 721.619 221.393C720.247 218.738 719.561 215.599 719.561 211.975C719.561 208.44 720.247 205.337 721.619 202.668C722.991 199.998 724.923 197.917 727.413 196.426C729.919 194.934 732.857 194.189 736.228 194.189C738.495 194.189 740.606 194.554 742.559 195.285C744.528 196.001 746.243 197.082 747.705 198.529C749.182 199.976 750.33 201.795 751.15 203.988C751.971 206.165 752.381 208.716 752.381 211.639V214.257H723.364V208.35H743.41C743.41 206.978 743.111 205.763 742.515 204.704C741.918 203.645 741.09 202.817 740.031 202.22C738.987 201.609 737.772 201.303 736.385 201.303C734.938 201.303 733.655 201.639 732.537 202.31C731.433 202.966 730.568 203.853 729.942 204.972C729.315 206.076 728.994 207.306 728.98 208.663V214.279C728.98 215.979 729.293 217.448 729.919 218.686C730.56 219.924 731.463 220.879 732.626 221.55C733.79 222.221 735.169 222.557 736.765 222.557C737.824 222.557 738.793 222.407 739.673 222.109C740.553 221.811 741.307 221.363 741.933 220.767C742.559 220.17 743.037 219.439 743.365 218.574L752.179 219.156C751.732 221.274 750.815 223.123 749.428 224.704C748.056 226.27 746.281 227.493 744.103 228.373C741.94 229.238 739.442 229.671 736.608 229.671ZM776.878 194.636V201.795H756.184V194.636H776.878ZM760.882 186.403H770.413V218.44C770.413 219.32 770.547 220.006 770.815 220.498C771.084 220.976 771.457 221.311 771.934 221.505C772.426 221.699 772.993 221.796 773.634 221.796C774.082 221.796 774.529 221.759 774.977 221.684C775.424 221.595 775.767 221.527 776.006 221.483L777.505 228.575C777.027 228.724 776.356 228.895 775.491 229.089C774.626 229.298 773.575 229.425 772.337 229.47C770.04 229.559 768.026 229.253 766.296 228.552C764.581 227.851 763.246 226.763 762.292 225.286C761.337 223.809 760.867 221.945 760.882 219.693V186.403ZM792.886 229.649C790.693 229.649 788.739 229.268 787.024 228.508C785.309 227.732 783.952 226.591 782.952 225.085C781.968 223.563 781.476 221.669 781.476 219.402C781.476 217.493 781.826 215.89 782.527 214.592C783.228 213.295 784.183 212.25 785.391 211.46C786.599 210.669 787.971 210.073 789.507 209.67C791.059 209.268 792.684 208.984 794.385 208.82C796.383 208.611 797.994 208.417 799.217 208.238C800.44 208.044 801.327 207.761 801.879 207.388C802.431 207.015 802.707 206.464 802.707 205.733V205.598C802.707 204.182 802.26 203.085 801.365 202.31C800.485 201.534 799.232 201.146 797.606 201.146C795.891 201.146 794.526 201.527 793.512 202.287C792.498 203.033 791.827 203.973 791.499 205.106L782.684 204.39C783.131 202.302 784.011 200.498 785.324 198.976C786.636 197.44 788.329 196.262 790.402 195.442C792.49 194.606 794.907 194.189 797.651 194.189C799.56 194.189 801.387 194.412 803.132 194.86C804.892 195.307 806.451 196.001 807.808 196.94C809.18 197.88 810.261 199.088 811.052 200.565C811.842 202.026 812.238 203.779 812.238 205.822V229H803.199V224.234H802.931C802.379 225.308 801.641 226.255 800.716 227.076C799.791 227.881 798.68 228.515 797.382 228.977C796.085 229.425 794.586 229.649 792.886 229.649ZM795.615 223.071C797.017 223.071 798.255 222.795 799.329 222.243C800.403 221.677 801.245 220.916 801.857 219.961C802.468 219.007 802.774 217.926 802.774 216.717V213.071C802.476 213.265 802.066 213.444 801.544 213.608C801.037 213.757 800.462 213.899 799.821 214.033C799.18 214.152 798.538 214.264 797.897 214.368C797.256 214.458 796.674 214.54 796.152 214.614C795.033 214.779 794.056 215.04 793.221 215.397C792.386 215.755 791.737 216.24 791.275 216.852C790.812 217.448 790.581 218.194 790.581 219.089C790.581 220.386 791.051 221.378 791.991 222.064C792.945 222.736 794.153 223.071 795.615 223.071Z" fill="white"/>
<defs>
<clipPath id="clip0_83_18">
<rect width="249" height="249" fill="white" transform="translate(64.0001 44.9998)"/>
</clipPath>
</defs>
</svg>
