<svg width="590" height="298" viewBox="0 0 590 298" fill="none" xmlns="http://www.w3.org/2000/svg">
<g clip-path="url(#clip0_574_1108)">
<path d="M537.321 1.75781H52.6786C24.5548 1.75781 1.75598 24.5847 1.75598 52.7431V245.256C1.75598 273.415 24.5548 296.242 52.6786 296.242H537.321C565.445 296.242 588.244 273.415 588.244 245.256V52.7431C588.244 24.5847 565.445 1.75781 537.321 1.75781Z" fill="black"/>
<path d="M537.321 1.75781H52.6786C24.5548 1.75781 1.75598 24.5847 1.75598 52.7431V245.256C1.75598 273.415 24.5548 296.242 52.6786 296.242H537.321C565.445 296.242 588.244 273.415 588.244 245.256V52.7431C588.244 24.5847 565.445 1.75781 537.321 1.75781Z" stroke="white" stroke-width="4"/>
<path d="M300.252 134.495V94.2188H316.123C319.174 94.2188 321.774 94.8024 323.921 95.9689C326.069 97.1223 327.705 98.7283 328.832 100.787C329.971 102.833 330.54 105.192 330.54 107.867C330.54 110.542 329.964 112.901 328.812 114.947C327.66 116.992 325.99 118.585 323.803 119.726C321.63 120.866 318.998 121.437 315.907 121.437H305.791V114.613H314.532C316.169 114.613 317.517 114.331 318.578 113.767C319.652 113.19 320.451 112.397 320.975 111.388C321.511 110.364 321.78 109.191 321.78 107.867C321.78 106.53 321.511 105.363 320.975 104.367C320.451 103.357 319.652 102.577 318.578 102.027C317.504 101.462 316.142 101.181 314.493 101.181H308.757V134.495H300.252ZM344.275 94.2188V134.495H335.907V94.2188H344.275ZM359.581 135.066C357.657 135.066 355.941 134.731 354.435 134.063C352.93 133.381 351.737 132.378 350.86 131.054C349.996 129.717 349.564 128.051 349.564 126.058C349.564 124.38 349.872 122.971 350.487 121.83C351.103 120.69 351.941 119.772 353.002 119.077C354.062 118.382 355.267 117.857 356.615 117.503C357.977 117.15 359.405 116.9 360.897 116.756C362.652 116.573 364.067 116.403 365.141 116.245C366.214 116.075 366.993 115.825 367.478 115.497C367.962 115.17 368.205 114.685 368.205 114.042V113.925C368.205 112.679 367.811 111.715 367.026 111.033C366.253 110.351 365.154 110.011 363.726 110.011C362.22 110.011 361.022 110.345 360.132 111.014C359.241 111.669 358.651 112.495 358.363 113.492L350.625 112.863C351.017 111.027 351.79 109.44 352.943 108.103C354.095 106.752 355.581 105.717 357.401 104.996C359.234 104.262 361.356 103.895 363.766 103.895C365.442 103.895 367.046 104.091 368.578 104.484C370.123 104.878 371.491 105.487 372.683 106.314C373.888 107.139 374.837 108.201 375.531 109.499C376.225 110.785 376.572 112.325 376.572 114.121V134.495H368.637V130.307H368.4C367.917 131.251 367.268 132.083 366.457 132.804C365.645 133.512 364.669 134.069 363.529 134.476C362.391 134.869 361.075 135.066 359.581 135.066ZM361.978 129.283C363.209 129.283 364.296 129.041 365.239 128.556C366.181 128.058 366.921 127.389 367.458 126.55C367.995 125.711 368.264 124.761 368.264 123.699V120.493C368.002 120.663 367.641 120.821 367.183 120.965C366.738 121.096 366.234 121.221 365.671 121.339C365.107 121.443 364.544 121.542 363.982 121.634C363.418 121.712 362.908 121.784 362.45 121.85C361.467 121.994 360.609 122.224 359.876 122.538C359.143 122.853 358.573 123.279 358.168 123.817C357.761 124.341 357.558 124.996 357.558 125.783C357.558 126.924 357.971 127.796 358.795 128.399C359.634 128.989 360.694 129.283 361.978 129.283ZM387.15 145.823C386.089 145.823 385.093 145.738 384.164 145.568C383.247 145.411 382.488 145.207 381.885 144.958L383.771 138.704C384.753 139.006 385.637 139.169 386.423 139.196C387.222 139.222 387.909 139.038 388.485 138.645C389.074 138.252 389.553 137.583 389.919 136.639L390.41 135.36L379.587 104.287H388.387L394.633 126.471H394.947L401.253 104.287H410.111L398.385 137.76C397.821 139.386 397.056 140.802 396.087 142.008C395.13 143.227 393.92 144.165 392.453 144.82C390.986 145.489 389.218 145.823 387.15 145.823ZM440.827 135.085C437.776 135.085 435.137 134.436 432.911 133.138C430.698 131.827 428.989 130.005 427.784 127.671C426.58 125.324 425.977 122.603 425.977 119.509C425.977 116.389 426.58 113.662 427.784 111.329C428.989 108.982 430.698 107.159 432.911 105.861C435.137 104.55 437.776 103.895 440.827 103.895C443.877 103.895 446.51 104.55 448.723 105.861C450.949 107.159 452.664 108.982 453.869 111.329C455.073 113.662 455.677 116.389 455.677 119.509C455.677 122.603 455.073 125.324 453.869 127.671C452.664 130.005 450.949 131.827 448.723 133.138C446.51 134.436 443.877 135.085 440.827 135.085ZM440.866 128.595C442.254 128.595 443.413 128.202 444.343 127.415C445.273 126.615 445.973 125.527 446.445 124.151C446.928 122.774 447.171 121.208 447.171 119.45C447.171 117.694 446.928 116.127 446.445 114.75C445.973 113.373 445.273 112.285 444.343 111.486C443.413 110.686 442.254 110.286 440.866 110.286C439.465 110.286 438.287 110.686 437.33 111.486C436.387 112.285 435.674 113.373 435.189 114.75C434.718 116.127 434.482 117.694 434.482 119.45C434.482 121.208 434.718 122.774 435.189 124.151C435.674 125.527 436.387 126.615 437.33 127.415C438.287 128.202 439.465 128.595 440.866 128.595ZM469.485 117.032V134.495H461.117V104.287H469.092V109.617H469.445C470.113 107.861 471.233 106.471 472.804 105.448C474.376 104.412 476.281 103.895 478.52 103.895C480.616 103.895 482.442 104.353 484 105.271C485.559 106.189 486.77 107.5 487.634 109.204C488.498 110.895 488.931 112.915 488.931 115.262V134.495H480.563V116.756C480.576 114.907 480.105 113.466 479.148 112.429C478.192 111.381 476.877 110.857 475.2 110.857C474.075 110.857 473.079 111.099 472.215 111.584C471.363 112.069 470.696 112.777 470.211 113.708C469.74 114.626 469.498 115.734 469.485 117.032ZM316.142 171.096V177.389H297.974V171.096H316.142ZM302.098 163.858H310.466V192.021C310.466 192.794 310.584 193.397 310.819 193.831C311.055 194.25 311.383 194.545 311.802 194.715C312.234 194.886 312.732 194.971 313.294 194.971C313.688 194.971 314.08 194.938 314.473 194.872C314.866 194.794 315.167 194.735 315.377 194.696L316.693 200.93C316.273 201.061 315.684 201.212 314.925 201.382C314.165 201.566 313.243 201.677 312.156 201.717C310.139 201.795 308.371 201.527 306.852 200.911C305.346 200.294 304.174 199.337 303.336 198.039C302.498 196.741 302.085 195.102 302.098 193.122V163.858ZM330.609 183.84V201.304H322.242V161.027H330.374V176.425H330.727C331.408 174.643 332.508 173.246 334.027 172.237C335.546 171.214 337.451 170.703 339.742 170.703C341.838 170.703 343.664 171.162 345.223 172.079C346.794 172.984 348.012 174.288 348.877 175.993C349.754 177.684 350.186 179.71 350.173 182.07V201.304H341.806V183.564C341.818 181.702 341.347 180.254 340.391 179.218C339.448 178.183 338.125 177.665 336.424 177.665C335.284 177.665 334.276 177.908 333.398 178.392C332.534 178.877 331.853 179.586 331.356 180.517C330.871 181.434 330.622 182.542 330.609 183.84ZM370.508 201.893C367.404 201.893 364.732 201.264 362.493 200.005C360.268 198.734 358.552 196.937 357.348 194.617C356.142 192.284 355.54 189.523 355.54 186.338C355.54 183.23 356.142 180.503 357.348 178.156C358.552 175.809 360.248 173.981 362.435 172.669C364.635 171.359 367.214 170.703 370.174 170.703C372.164 170.703 374.017 171.024 375.732 171.666C377.461 172.296 378.967 173.246 380.25 174.518C381.546 175.79 382.554 177.389 383.275 179.317C383.995 181.23 384.355 183.473 384.355 186.042V188.344H358.88V183.151H376.479C376.479 181.945 376.217 180.877 375.693 179.946C375.17 179.015 374.443 178.287 373.513 177.763C372.596 177.225 371.529 176.956 370.311 176.956C369.041 176.956 367.915 177.252 366.933 177.842C365.963 178.418 365.204 179.199 364.654 180.182C364.105 181.152 363.823 182.233 363.81 183.427V188.363C363.81 189.857 364.084 191.15 364.635 192.237C365.198 193.325 365.99 194.165 367.012 194.755C368.033 195.344 369.244 195.64 370.645 195.64C371.574 195.64 372.426 195.509 373.199 195.246C373.971 194.984 374.632 194.591 375.182 194.066C375.732 193.542 376.151 192.9 376.439 192.139L384.179 192.65C383.785 194.512 382.98 196.138 381.762 197.528C380.558 198.905 378.999 199.98 377.088 200.753C375.189 201.514 372.996 201.893 370.508 201.893ZM411.83 201.304L400.319 161.027H409.61L416.269 189.012H416.603L423.949 161.027H431.905L439.23 189.072H439.584L446.243 161.027H455.533L444.023 201.304H435.734L428.074 174.971H427.76L420.119 201.304H411.83ZM470.437 201.893C467.333 201.893 464.663 201.264 462.423 200.005C460.197 198.734 458.482 196.937 457.277 194.617C456.073 192.284 455.47 189.523 455.47 186.338C455.47 183.23 456.073 180.503 457.277 178.156C458.482 175.809 460.177 173.981 462.364 172.669C464.564 171.359 467.144 170.703 470.104 170.703C472.094 170.703 473.946 171.024 475.662 171.666C477.391 172.296 478.896 173.246 480.18 174.518C481.476 175.79 482.485 177.389 483.205 179.317C483.925 181.23 484.285 183.473 484.285 186.042V188.344H458.809V183.151H476.408C476.408 181.945 476.147 180.877 475.622 179.946C475.099 179.015 474.372 178.287 473.442 177.763C472.526 177.225 471.459 176.956 470.241 176.956C468.971 176.956 467.844 177.252 466.862 177.842C465.894 178.418 465.134 179.199 464.584 180.182C464.034 181.152 463.752 182.233 463.739 183.427V188.363C463.739 189.857 464.015 191.15 464.564 192.237C465.127 193.325 465.92 194.165 466.941 194.755C467.962 195.344 469.174 195.64 470.575 195.64C471.505 195.64 472.356 195.509 473.128 195.246C473.901 194.984 474.562 194.591 475.112 194.066C475.662 193.542 476.081 192.9 476.37 192.139L484.108 192.65C483.716 194.512 482.911 196.138 481.692 197.528C480.487 198.905 478.929 199.98 477.018 200.753C475.119 201.514 472.925 201.893 470.437 201.893ZM489.903 201.304V161.027H498.271V176.17H498.525C498.892 175.357 499.423 174.531 500.117 173.692C500.824 172.84 501.741 172.132 502.867 171.568C504.006 170.991 505.42 170.703 507.109 170.703C509.31 170.703 511.339 171.279 513.198 172.434C515.058 173.574 516.544 175.298 517.657 177.606C518.771 179.9 519.327 182.777 519.327 186.239C519.327 189.609 518.784 192.454 517.697 194.774C516.623 197.081 515.156 198.833 513.296 200.025C511.45 201.205 509.382 201.795 507.09 201.795C505.466 201.795 504.085 201.527 502.945 200.989C501.819 200.452 500.896 199.776 500.176 198.964C499.455 198.137 498.906 197.305 498.525 196.465H498.152V201.304H489.903ZM498.093 186.2C498.093 187.996 498.343 189.563 498.84 190.9C499.337 192.237 500.057 193.28 501 194.027C501.943 194.762 503.089 195.128 504.438 195.128C505.8 195.128 506.952 194.755 507.895 194.007C508.838 193.247 509.552 192.198 510.036 190.86C510.533 189.51 510.783 187.957 510.783 186.2C510.783 184.456 510.54 182.922 510.056 181.598C509.571 180.274 508.857 179.238 507.914 178.49C506.971 177.743 505.813 177.37 504.438 177.37C503.076 177.37 501.924 177.73 500.981 178.452C500.051 179.172 499.337 180.195 498.84 181.52C498.343 182.843 498.093 184.404 498.093 186.2Z" fill="white"/>
<path d="M248.111 56.2051H77.6185C66.7546 56.2051 57.9464 65.0241 57.9464 75.9015V220.341C57.9464 231.219 66.7546 240.037 77.6185 240.037H248.111C258.975 240.037 267.783 231.219 267.783 220.341V75.9015C267.783 65.0241 258.975 56.2051 248.111 56.2051ZM240.186 70.567C244.486 70.567 247.973 74.0582 247.973 78.3634C247.973 82.6688 244.486 86.16 240.186 86.16C235.886 86.16 232.399 82.6688 232.399 78.3634C232.399 74.0582 235.886 70.567 240.186 70.567ZM211.293 70.567C215.592 70.567 219.08 74.0582 219.08 78.3634C219.08 82.6688 215.592 86.16 211.293 86.16C206.993 86.16 203.505 82.6688 203.505 78.3634C203.505 74.0582 206.993 70.567 211.293 70.567ZM182.399 70.567C186.699 70.567 190.186 74.0582 190.186 78.3634C190.186 82.6688 186.699 86.16 182.399 86.16C178.099 86.16 174.612 82.6688 174.612 78.3634C174.612 74.0582 178.099 70.567 182.399 70.567ZM251.389 220.341C251.389 222.149 249.919 223.624 248.111 223.624H77.6185C75.8095 223.624 74.3399 222.149 74.3399 220.341V98.8802H251.389V220.341Z" fill="white"/>
<path d="M97.8961 177.113H104.466C104.866 177.113 105.132 176.854 105.257 176.472L110.902 158.418H111.04L116.544 176.472C116.679 176.854 116.947 177.113 117.341 177.113H123.975C124.378 177.113 124.644 176.854 124.77 176.472L135.063 146.658C135.192 146.277 134.987 146.018 134.529 146.018H126.368C125.896 146.018 125.634 146.216 125.507 146.658L120.46 165.163H120.332L114.69 146.658C114.552 146.216 114.29 146.018 113.825 146.018H108.251C107.784 146.018 107.45 146.216 107.326 146.658L101.812 165.163H101.678L96.371 146.658C96.2367 146.216 95.9812 146.018 95.443 146.018H87.2849C86.8783 146.018 86.6891 146.278 86.8107 146.658L97.105 176.472C97.2358 176.854 97.5019 177.113 97.8961 177.113Z" fill="white"/>
<path d="M149.782 177.113H156.361C156.755 177.113 157.024 176.854 157.152 176.472L162.794 158.418H162.929L168.433 176.472C168.571 176.854 168.836 177.113 169.233 177.113H175.864C176.268 177.113 176.53 176.854 176.665 176.472L186.952 146.658C187.081 146.277 186.882 146.018 186.421 146.018H178.262C177.788 146.018 177.522 146.216 177.394 146.658L172.348 165.163H172.217L166.578 146.658C166.441 146.216 166.178 146.018 165.717 146.018H160.139C159.675 146.018 159.342 146.216 159.214 146.658L153.704 165.163H153.572L148.26 146.658C148.132 146.216 147.863 146.018 147.335 146.018H139.173C138.767 146.018 138.572 146.278 138.709 146.658L148.993 176.472C149.126 176.854 149.391 177.113 149.782 177.113Z" fill="white"/>
<path d="M201.748 177.113H208.324C208.715 177.113 208.98 176.854 209.112 176.472L214.754 158.418H214.892L220.396 176.472C220.53 176.854 220.793 177.113 221.189 177.113H227.827C228.227 177.113 228.493 176.854 228.624 176.472L238.918 146.658C239.04 146.277 238.842 146.018 238.387 146.018H230.216C229.751 146.018 229.485 146.216 229.358 146.658L224.315 165.163H224.184L218.542 146.658C218.404 146.216 218.142 146.018 217.681 146.018H212.1C211.635 146.018 211.305 146.216 211.177 146.658L205.66 165.163H205.536L200.227 146.658C200.089 146.216 199.833 146.018 199.298 146.018H191.133C190.736 146.018 190.538 146.278 190.666 146.658L200.96 176.472C201.086 176.854 201.351 177.113 201.748 177.113Z" fill="white"/>
</g>
<defs>
<clipPath id="clip0_574_1108">
<rect width="590" height="298" fill="white"/>
</clipPath>
</defs>
</svg>
