<svg width="818" height="298" viewBox="0 0 818 298" fill="none" xmlns="http://www.w3.org/2000/svg">
<g clip-path="url(#clip0_574_1099)">
<path d="M765.112 1.75781H52.8879C24.6524 1.75781 1.76294 24.5847 1.76294 52.7431V245.256C1.76294 273.415 24.6524 296.242 52.8879 296.242H765.112C793.348 296.242 816.237 273.415 816.237 245.256V52.7431C816.237 24.5847 793.348 1.75781 765.112 1.75781Z" fill="black"/>
<path d="M765.112 1.75781H52.8879C24.6524 1.75781 1.76294 24.5847 1.76294 52.7431V245.256C1.76294 273.415 24.6524 296.242 52.8879 296.242H765.112C793.348 296.242 816.237 273.415 816.237 245.256V52.7431C816.237 24.5847 793.348 1.75781 765.112 1.75781Z" stroke="white" stroke-width="4"/>
<mask id="mask0_574_1099" style="mask-type:luminance" maskUnits="userSpaceOnUse" x="56" y="39" width="220" height="220">
<path d="M275.899 39.5566H56.4138V258.442H275.899V39.5566Z" fill="white"/>
</mask>
<g mask="url(#mask0_574_1099)">
<path d="M275.899 148.999C275.899 88.9193 227.097 40.0112 166.954 39.5776C166.887 39.5776 166.819 39.5566 166.751 39.5566H165.566C165.493 39.5566 165.431 39.5776 165.358 39.5776C105.212 40.0112 56.4138 88.9193 56.4138 148.999C56.4138 168.509 61.5844 186.829 70.596 202.711C70.6803 202.87 70.7268 203.043 70.8196 203.203L71.4148 204.234C71.5035 204.39 71.6258 204.512 71.7229 204.663C90.8561 236.822 126.016 258.442 166.156 258.442C206.296 258.442 241.456 236.827 260.589 204.663C260.687 204.507 260.813 204.385 260.907 204.225L261.493 203.207C261.582 203.051 261.628 202.883 261.712 202.727C270.724 186.841 275.899 168.518 275.899 148.999ZM267.457 148.999C267.457 162.027 264.946 174.47 260.421 185.915C259.015 184.084 257.234 182.531 255.085 181.428L186.999 146.418C186.282 140.644 183.255 135.617 178.819 132.271L182.462 55.9856C182.575 53.5611 182.107 51.2375 181.204 49.0991C229.95 56.3687 267.457 98.3947 267.457 148.999ZM253.292 200.437C252.262 201.977 250.772 203.072 249.003 203.497C247.075 203.964 245.065 203.615 243.343 202.512L182.221 163.336L186.636 155.705L251.211 188.908C253.043 189.851 254.36 191.412 254.917 193.298C255.423 195.024 255.217 196.855 254.385 198.531C254.03 199.17 253.667 199.81 253.292 200.437ZM88.9654 202.508C87.2304 203.624 85.2128 203.982 83.3007 203.51C81.5406 203.088 80.0464 201.982 79.0123 200.428C78.6367 199.797 78.2737 199.162 77.9107 198.522C77.0961 196.863 76.8893 195.032 77.4 193.302C77.9571 191.404 79.2698 189.846 81.0933 188.908L145.668 155.705L150.084 163.336L88.9654 202.508ZM153.494 148.999C153.494 142.037 159.175 136.371 166.156 136.371C173.137 136.371 178.819 142.037 178.819 148.999C178.819 155.961 173.137 161.627 166.156 161.627C159.175 161.627 153.494 155.961 153.494 148.999ZM161.741 127.952L158.285 55.5815C158.188 53.5274 158.884 51.6121 160.247 50.1851C161.559 48.8129 163.371 48.051 165.351 47.9963C165.62 47.9921 165.886 47.9753 166.156 47.9753C166.427 47.9753 166.692 47.9921 166.958 47.9963C168.929 48.051 170.736 48.8129 172.057 50.1978C173.425 51.629 174.126 53.54 174.029 55.5815L170.571 127.952H161.741ZM151.096 49.0949C150.197 51.2332 149.733 53.5526 149.851 55.9771L153.494 132.271C149.058 135.622 146.031 140.647 145.314 146.418L77.2269 181.428C75.0743 182.534 73.2973 184.088 71.896 185.928C67.3712 174.478 64.8555 162.031 64.8555 148.999C64.8555 98.3991 102.358 56.3729 151.096 49.0949ZM166.156 250.023C134.17 250.023 105.621 235.147 87.0404 211.987C89.3074 211.685 91.5146 210.885 93.5278 209.596L157.879 168.353C160.424 169.436 163.218 170.046 166.156 170.046C169.094 170.046 171.888 169.436 174.433 168.349L238.785 209.588C240.798 210.88 243.006 211.672 245.281 211.975C226.701 235.143 198.146 250.023 166.156 250.023Z" fill="white"/>
</g>
<path d="M340.535 94.2193H348.975V122.303C348.975 124.898 348.39 127.153 347.22 129.068C346.063 130.982 344.452 132.457 342.389 133.493C340.324 134.528 337.925 135.046 335.191 135.046C332.758 135.046 330.55 134.62 328.565 133.768C326.592 132.903 325.028 131.592 323.871 129.835C322.714 128.065 322.142 125.843 322.155 123.168H330.655C330.681 124.229 330.898 125.141 331.305 125.901C331.726 126.649 332.298 127.226 333.021 127.632C333.757 128.025 334.625 128.222 335.624 128.222C336.676 128.222 337.564 127.999 338.286 127.553C339.022 127.094 339.581 126.426 339.963 125.547C340.344 124.669 340.535 123.588 340.535 122.303V94.2193ZM369.562 135.086C366.499 135.086 363.851 134.437 361.615 133.139C359.394 131.828 357.678 130.005 356.468 127.672C355.259 125.325 354.654 122.604 354.654 119.51C354.654 116.389 355.259 113.662 356.468 111.328C357.678 108.982 359.394 107.159 361.615 105.862C363.851 104.55 366.499 103.895 369.562 103.895C372.626 103.895 375.268 104.55 377.49 105.862C379.725 107.159 381.447 108.982 382.657 111.328C383.867 113.662 384.472 116.389 384.472 119.51C384.472 122.604 383.867 125.325 382.657 127.672C381.447 130.005 379.725 131.828 377.49 133.139C375.268 134.437 372.626 135.086 369.562 135.086ZM369.602 128.596C370.996 128.596 372.159 128.203 373.093 127.416C374.026 126.616 374.73 125.528 375.203 124.151C375.69 122.775 375.933 121.208 375.933 119.451C375.933 117.694 375.69 116.127 375.203 114.751C374.73 113.374 374.026 112.286 373.093 111.486C372.159 110.687 370.996 110.287 369.602 110.287C368.195 110.287 367.012 110.687 366.052 111.486C365.106 112.286 364.389 113.374 363.903 114.751C363.43 116.127 363.193 117.694 363.193 119.451C363.193 121.208 363.43 122.775 363.903 124.151C364.389 125.528 365.106 126.616 366.052 127.416C367.012 128.203 368.195 128.596 369.602 128.596ZM389.934 134.496V104.288H398.334V134.496H389.934ZM394.154 100.394C392.905 100.394 391.834 99.9815 390.94 99.1552C390.058 98.3157 389.618 97.3127 389.618 96.1462C389.618 94.9929 390.058 94.0022 390.94 93.1768C391.834 92.3373 392.905 91.918 394.154 91.918C395.403 91.918 396.467 92.3373 397.349 93.1768C398.243 94.0022 398.69 94.9929 398.69 96.1462C398.69 97.3127 398.243 98.3157 397.349 99.1552C396.467 99.9815 395.403 100.394 394.154 100.394ZM413.465 117.032V134.496H405.064V104.288H413.071V109.618H413.426C414.096 107.861 415.22 106.471 416.798 105.448C418.375 104.413 420.288 103.895 422.537 103.895C424.64 103.895 426.474 104.354 428.038 105.272C429.603 106.189 430.819 107.5 431.686 109.205C432.555 110.896 432.988 112.915 432.988 115.262V134.496H424.587V116.757C424.6 114.908 424.127 113.465 423.167 112.43C422.208 111.381 420.887 110.856 419.204 110.856C418.073 110.856 417.073 111.099 416.206 111.584C415.352 112.069 414.681 112.777 414.195 113.708C413.721 114.626 413.478 115.734 413.465 117.032ZM466.148 135.086C463.084 135.086 460.435 134.437 458.201 133.139C455.979 131.828 454.263 130.005 453.053 127.672C451.844 125.325 451.239 122.604 451.239 119.51C451.239 116.389 451.844 113.662 453.053 111.328C454.263 108.982 455.979 107.159 458.201 105.862C460.435 104.55 463.084 103.895 466.148 103.895C469.211 103.895 471.854 104.55 474.075 105.862C476.311 107.159 478.033 108.982 479.242 111.328C480.452 113.662 481.056 116.389 481.056 119.51C481.056 122.604 480.452 125.325 479.242 127.672C478.033 130.005 476.311 131.828 474.075 133.139C471.854 134.437 469.211 135.086 466.148 135.086ZM466.187 128.596C467.581 128.596 468.744 128.203 469.678 127.416C470.611 126.616 471.314 125.528 471.788 124.151C472.274 122.775 472.518 121.208 472.518 119.451C472.518 117.694 472.274 116.127 471.788 114.751C471.314 113.374 470.611 112.286 469.678 111.486C468.744 110.687 467.581 110.287 466.187 110.287C464.78 110.287 463.597 110.687 462.637 111.486C461.691 112.286 460.975 113.374 460.488 114.751C460.015 116.127 459.778 117.694 459.778 119.451C459.778 121.208 460.015 122.775 460.488 124.151C460.975 125.528 461.691 126.616 462.637 127.416C463.597 128.203 464.78 128.596 466.187 128.596ZM505.944 121.634V104.288H514.344V134.496H506.279V129.009H505.963C505.279 130.778 504.142 132.202 502.552 133.277C500.974 134.352 499.048 134.889 496.774 134.889C494.749 134.889 492.968 134.43 491.429 133.512C489.891 132.595 488.688 131.29 487.821 129.599C486.966 127.907 486.532 125.882 486.519 123.522V104.288H494.92V122.027C494.932 123.81 495.413 125.22 496.36 126.256C497.306 127.291 498.575 127.809 500.166 127.809C501.178 127.809 502.124 127.58 503.005 127.121C503.885 126.649 504.596 125.954 505.135 125.036C505.687 124.119 505.957 122.985 505.944 121.634ZM521.063 134.496V104.288H529.208V109.559H529.524C530.077 107.684 531.003 106.268 532.305 105.31C533.606 104.341 535.104 103.856 536.8 103.856C537.222 103.856 537.675 103.882 538.161 103.934C538.648 103.987 539.075 104.059 539.443 104.151V111.584C539.049 111.466 538.503 111.362 537.806 111.27C537.11 111.178 536.472 111.132 535.893 111.132C534.657 111.132 533.554 111.4 532.581 111.938C531.621 112.462 530.858 113.197 530.293 114.141C529.741 115.085 529.465 116.173 529.465 117.405V134.496H521.063ZM556.639 134.496V104.288H565.04V134.496H556.639ZM560.859 100.394C559.611 100.394 558.539 99.9815 557.645 99.1552C556.765 98.3157 556.324 97.3127 556.324 96.1462C556.324 94.9929 556.765 94.0022 557.645 93.1768C558.539 92.3373 559.611 91.918 560.859 91.918C562.108 91.918 563.173 92.3373 564.054 93.1768C564.948 94.0022 565.395 94.9929 565.395 96.1462C565.395 97.3127 564.948 98.3157 564.054 99.1552C563.173 99.9815 562.108 100.394 560.859 100.394ZM609.041 114.358C609.041 118.749 608.206 122.486 606.537 125.567C604.88 128.648 602.618 131.002 599.753 132.627C596.899 134.24 593.692 135.046 590.129 135.046C586.541 135.046 583.32 134.233 580.466 132.608C577.613 130.982 575.359 128.628 573.702 125.547C572.046 122.466 571.217 118.736 571.217 114.358C571.217 109.965 572.046 106.229 573.702 103.148C575.359 100.067 577.613 97.7197 580.466 96.1067C583.32 94.4813 586.541 93.6682 590.129 93.6682C593.692 93.6682 596.899 94.4813 599.753 96.1067C602.618 97.7197 604.88 100.067 606.537 103.148C608.206 106.229 609.041 109.965 609.041 114.358ZM600.384 114.358C600.384 111.512 599.956 109.113 599.102 107.159C598.26 105.206 597.071 103.725 595.532 102.715C593.994 101.705 592.193 101.201 590.129 101.201C588.065 101.201 586.264 101.705 584.726 102.715C583.187 103.725 581.991 105.206 581.137 107.159C580.295 109.113 579.875 111.512 579.875 114.358C579.875 117.202 580.295 119.602 581.137 121.555C581.991 123.509 583.187 124.991 584.726 126C586.264 127.009 588.065 127.514 590.129 127.514C592.193 127.514 593.994 127.009 595.532 126C597.071 124.991 598.26 123.509 599.102 121.555C599.956 119.602 600.384 117.202 600.384 114.358ZM637.276 105.803C637.118 104.216 636.441 102.984 635.244 102.105C634.048 101.227 632.424 100.788 630.373 100.788C628.98 100.788 627.804 100.985 626.844 101.377C625.884 101.758 625.148 102.289 624.635 102.97C624.135 103.652 623.886 104.426 623.886 105.291C623.859 106.012 624.011 106.641 624.339 107.179C624.681 107.716 625.148 108.182 625.739 108.575C626.331 108.956 627.015 109.29 627.79 109.578C628.566 109.853 629.394 110.09 630.274 110.287L633.903 111.152C635.665 111.545 637.282 112.069 638.755 112.725C640.227 113.381 641.503 114.187 642.581 115.144C643.659 116.101 644.493 117.229 645.085 118.527C645.689 119.824 645.999 121.313 646.011 122.991C645.999 125.456 645.368 127.593 644.119 129.402C642.883 131.199 641.094 132.595 638.755 133.591C636.428 134.574 633.62 135.066 630.334 135.066C627.074 135.066 624.234 134.568 621.815 133.571C619.409 132.575 617.529 131.1 616.175 129.147C614.834 127.18 614.13 124.748 614.065 121.85H622.328C622.42 123.201 622.808 124.328 623.491 125.232C624.188 126.125 625.114 126.8 626.272 127.259C627.441 127.704 628.763 127.927 630.236 127.927C631.681 127.927 632.937 127.718 634.002 127.298C635.08 126.878 635.915 126.295 636.506 125.547C637.098 124.8 637.394 123.941 637.394 122.971C637.394 122.067 637.124 121.306 636.586 120.689C636.059 120.074 635.284 119.549 634.259 119.117C633.246 118.684 632.004 118.291 630.531 117.936L626.133 116.836C622.728 116.009 620.04 114.718 618.068 112.961C616.096 111.204 615.117 108.838 615.13 105.862C615.117 103.423 615.767 101.292 617.082 99.4699C618.41 97.6477 620.231 96.2253 622.545 95.2021C624.859 94.1798 627.488 93.6682 630.432 93.6682C633.43 93.6682 636.046 94.1798 638.282 95.2021C640.529 96.2253 642.278 97.6477 643.527 99.4699C644.775 101.292 645.42 103.403 645.459 105.803H637.276ZM322.825 168.048V161.028H355.995V168.048H343.631V201.304H335.191V168.048H322.825ZM370.712 201.894C367.596 201.894 364.914 201.265 362.666 200.006C360.431 198.734 358.708 196.938 357.499 194.617C356.289 192.283 355.685 189.524 355.685 186.338C355.685 183.231 356.289 180.503 357.499 178.157C358.708 175.81 360.411 173.98 362.607 172.67C364.815 171.358 367.405 170.703 370.376 170.703C372.374 170.703 374.235 171.024 375.958 171.667C377.692 172.296 379.204 173.246 380.493 174.518C381.795 175.79 382.807 177.389 383.529 179.317C384.253 181.231 384.614 183.473 384.614 186.043V188.344H359.037V183.152H376.707C376.707 181.946 376.443 180.878 375.918 179.947C375.392 179.016 374.662 178.288 373.728 177.763C372.808 177.226 371.737 176.957 370.514 176.957C369.239 176.957 368.108 177.252 367.123 177.842C366.149 178.419 365.387 179.199 364.835 180.182C364.283 181.153 364 182.234 363.987 183.427V188.364C363.987 189.858 364.263 191.149 364.815 192.238C365.381 193.326 366.176 194.165 367.201 194.755C368.227 195.345 369.443 195.64 370.849 195.64C371.783 195.64 372.638 195.509 373.414 195.247C374.188 194.985 374.853 194.591 375.405 194.067C375.958 193.542 376.378 192.9 376.667 192.139L384.437 192.651C384.042 194.513 383.234 196.138 382.011 197.528C380.802 198.904 379.237 199.979 377.318 200.753C375.412 201.513 373.209 201.894 370.712 201.894ZM415.299 179.71L407.608 180.182C407.477 179.526 407.194 178.937 406.76 178.413C406.327 177.875 405.755 177.448 405.044 177.134C404.348 176.807 403.513 176.642 402.54 176.642C401.239 176.642 400.141 176.917 399.247 177.469C398.353 178.006 397.906 178.727 397.906 179.632C397.906 180.353 398.195 180.962 398.773 181.46C399.352 181.959 400.344 182.359 401.751 182.66L407.234 183.762C410.179 184.365 412.373 185.335 413.82 186.672C415.266 188.009 415.989 189.767 415.989 191.943C415.989 193.923 415.404 195.66 414.234 197.154C413.077 198.649 411.487 199.816 409.462 200.655C407.451 201.481 405.13 201.894 402.5 201.894C398.49 201.894 395.296 201.062 392.917 199.397C390.55 197.719 389.163 195.436 388.756 192.552L397.018 192.12C397.268 193.339 397.873 194.27 398.832 194.913C399.792 195.542 401.022 195.857 402.52 195.857C403.993 195.857 405.176 195.574 406.07 195.011C406.977 194.433 407.437 193.693 407.451 192.789C407.437 192.028 407.116 191.405 406.484 190.92C405.853 190.421 404.88 190.042 403.566 189.78L398.32 188.737C395.362 188.147 393.16 187.124 391.714 185.669C390.28 184.214 389.564 182.359 389.564 180.104C389.564 178.163 390.09 176.492 391.142 175.089C392.206 173.686 393.699 172.604 395.619 171.843C397.551 171.083 399.812 170.703 402.402 170.703C406.228 170.703 409.238 171.509 411.434 173.122C413.643 174.735 414.931 176.931 415.299 179.71ZM437.39 171.096V177.389H419.149V171.096H437.39ZM423.29 163.859H431.692V192.021C431.692 192.795 431.81 193.398 432.047 193.83C432.283 194.251 432.612 194.545 433.032 194.716C433.466 194.886 433.966 194.971 434.531 194.971C434.926 194.971 435.32 194.939 435.715 194.873C436.109 194.795 436.411 194.735 436.622 194.696L437.943 200.931C437.523 201.062 436.93 201.212 436.168 201.382C435.405 201.566 434.479 201.678 433.388 201.717C431.363 201.796 429.588 201.527 428.063 200.91C426.551 200.294 425.374 199.338 424.533 198.039C423.692 196.741 423.277 195.102 423.29 193.123V163.859ZM459.152 171.096V177.389H440.457V171.096H459.152ZM444.737 201.304V168.914C444.737 166.724 445.164 164.908 446.018 163.466C446.886 162.024 448.069 160.942 449.568 160.221C451.066 159.5 452.769 159.139 454.676 159.139C455.964 159.139 457.141 159.238 458.205 159.434C459.283 159.631 460.085 159.807 460.612 159.965L459.112 166.259C458.784 166.153 458.376 166.055 457.89 165.963C457.416 165.872 456.93 165.825 456.431 165.825C455.195 165.825 454.334 166.115 453.847 166.691C453.361 167.255 453.117 168.048 453.117 169.071V201.304H444.737ZM472.685 161.028V201.304H464.284V161.028H472.685ZM479.414 201.304V171.096H487.816V201.304H479.414ZM483.635 167.202C482.386 167.202 481.315 166.79 480.42 165.963C479.539 165.124 479.1 164.121 479.1 162.954C479.1 161.801 479.539 160.81 480.42 159.985C481.315 159.146 482.386 158.726 483.635 158.726C484.884 158.726 485.949 159.146 486.829 159.985C487.724 160.81 488.171 161.801 488.171 162.954C488.171 164.121 487.724 165.124 486.829 165.963C485.949 166.79 484.884 167.202 483.635 167.202ZM508.191 213.261C505.47 213.261 503.136 212.888 501.191 212.14C499.258 211.406 497.72 210.403 496.576 209.131C495.432 207.859 494.69 206.43 494.348 204.844L502.117 203.802C502.354 204.405 502.729 204.968 503.242 205.493C503.754 206.018 504.431 206.437 505.273 206.752C506.127 207.08 507.166 207.243 508.389 207.243C510.216 207.243 511.722 206.797 512.905 205.906C514.101 205.028 514.699 203.553 514.699 201.481V195.955H514.344C513.977 196.794 513.424 197.587 512.688 198.335C511.952 199.082 511.005 199.691 509.848 200.163C508.691 200.635 507.311 200.872 505.707 200.872C503.432 200.872 501.362 200.347 499.495 199.298C497.641 198.236 496.162 196.617 495.058 194.441C493.966 192.251 493.421 189.484 493.421 186.141C493.421 182.719 493.98 179.861 495.097 177.567C496.215 175.272 497.7 173.555 499.554 172.414C501.421 171.273 503.465 170.703 505.687 170.703C507.383 170.703 508.803 170.992 509.946 171.568C511.091 172.132 512.011 172.84 512.707 173.692C513.418 174.532 513.963 175.357 514.344 176.17H514.66V171.096H523.002V201.599C523.002 204.169 522.371 206.319 521.108 208.049C519.846 209.78 518.097 211.078 515.863 211.943C513.641 212.822 511.084 213.261 508.191 213.261ZM508.369 194.578C509.723 194.578 510.867 194.244 511.8 193.575C512.747 192.893 513.47 191.923 513.969 190.664C514.482 189.393 514.739 187.872 514.739 186.102C514.739 184.332 514.489 182.798 513.989 181.5C513.49 180.189 512.766 179.173 511.82 178.451C510.874 177.731 509.723 177.37 508.369 177.37C506.988 177.37 505.825 177.744 504.879 178.491C503.932 179.225 503.216 180.248 502.729 181.559C502.242 182.87 501.999 184.384 501.999 186.102C501.999 187.846 502.242 189.353 502.729 190.625C503.229 191.883 503.945 192.861 504.879 193.555C505.825 194.237 506.988 194.578 508.369 194.578ZM538.087 183.84V201.304H529.687V161.028H537.851V176.426H538.205C538.889 174.643 539.994 173.246 541.519 172.237C543.044 171.214 544.957 170.703 547.257 170.703C549.361 170.703 551.195 171.162 552.759 172.08C554.337 172.985 555.56 174.289 556.427 175.994C557.308 177.685 557.742 179.71 557.729 182.07V201.304H549.328V183.565C549.341 181.703 548.868 180.254 547.909 179.219C546.962 178.183 545.633 177.665 543.924 177.665C542.781 177.665 541.768 177.907 540.888 178.392C540.02 178.878 539.336 179.585 538.837 180.516C538.351 181.434 538.1 182.542 538.087 183.84ZM580.451 171.096V177.389H562.21V171.096H580.451ZM566.351 163.859H574.753V192.021C574.753 192.795 574.871 193.398 575.107 193.83C575.344 194.251 575.673 194.545 576.093 194.716C576.527 194.886 577.027 194.971 577.592 194.971C577.987 194.971 578.381 194.939 578.776 194.873C579.17 194.795 579.472 194.735 579.683 194.696L581.004 200.931C580.583 201.062 579.991 201.212 579.229 201.382C578.466 201.566 577.54 201.678 576.449 201.717C574.424 201.796 572.649 201.527 571.124 200.91C569.612 200.294 568.435 199.338 567.594 198.039C566.753 196.741 566.338 195.102 566.351 193.123V163.859ZM598.935 201.304V161.028H615.105C618.076 161.028 620.555 161.466 622.54 162.345C624.525 163.223 626.017 164.443 627.016 166.003C628.015 167.55 628.515 169.333 628.515 171.352C628.515 172.926 628.199 174.308 627.568 175.501C626.937 176.682 626.07 177.652 624.965 178.413C623.874 179.16 622.625 179.691 621.218 180.006V180.398C622.756 180.464 624.196 180.897 625.537 181.697C626.891 182.497 627.989 183.618 628.831 185.059C629.672 186.489 630.093 188.193 630.093 190.173C630.093 192.31 629.56 194.217 628.495 195.895C627.443 197.561 625.886 198.879 623.821 199.848C621.758 200.819 619.214 201.304 616.19 201.304H598.935ZM607.474 194.342H614.434C616.814 194.342 618.549 193.889 619.64 192.985C620.732 192.067 621.277 190.848 621.277 189.327C621.277 188.212 621.008 187.23 620.469 186.377C619.93 185.525 619.161 184.856 618.161 184.371C617.176 183.886 615.999 183.644 614.632 183.644H607.474V194.342ZM607.474 177.882H613.803C614.974 177.882 616.012 177.678 616.919 177.272C617.84 176.852 618.562 176.263 619.089 175.501C619.627 174.741 619.897 173.83 619.897 172.768C619.897 171.313 619.378 170.139 618.339 169.248C617.313 168.356 615.855 167.911 613.961 167.911H607.474V177.882ZM649.295 201.894C646.18 201.894 643.497 201.265 641.25 200.006C639.014 198.734 637.292 196.938 636.082 194.617C634.873 192.283 634.268 189.524 634.268 186.338C634.268 183.231 634.873 180.503 636.082 178.157C637.292 175.81 638.995 173.98 641.19 172.67C643.399 171.358 645.988 170.703 648.96 170.703C650.958 170.703 652.819 171.024 654.54 171.667C656.276 172.296 657.788 173.246 659.076 174.518C660.378 175.79 661.39 177.389 662.113 179.317C662.837 181.231 663.198 183.473 663.198 186.043V188.344H637.621V183.152H655.29C655.29 181.946 655.027 180.878 654.502 179.947C653.975 179.016 653.245 178.288 652.312 177.763C651.392 177.226 650.321 176.957 649.098 176.957C647.823 176.957 646.692 177.252 645.706 177.842C644.733 178.419 643.971 179.199 643.419 180.182C642.866 181.153 642.583 182.234 642.571 183.427V188.364C642.571 189.858 642.847 191.149 643.399 192.238C643.964 193.326 644.76 194.165 645.785 194.755C646.811 195.345 648.026 195.64 649.433 195.64C650.367 195.64 651.221 195.509 651.996 195.247C652.772 194.985 653.437 194.591 653.988 194.067C654.54 193.542 654.962 192.9 655.251 192.139L663.02 192.651C662.626 194.513 661.818 196.138 660.595 197.528C659.386 198.904 657.821 199.979 655.901 200.753C653.995 201.513 651.793 201.894 649.295 201.894ZM684.791 171.096V177.389H666.55V171.096H684.791ZM670.691 163.859H679.093V192.021C679.093 192.795 679.211 193.398 679.447 193.83C679.684 194.251 680.013 194.545 680.433 194.716C680.867 194.886 681.367 194.971 681.932 194.971C682.327 194.971 682.721 194.939 683.116 194.873C683.51 194.795 683.812 194.735 684.023 194.696L685.344 200.931C684.923 201.062 684.331 201.212 683.569 201.382C682.806 201.566 681.88 201.678 680.789 201.717C678.764 201.796 676.989 201.527 675.464 200.91C673.952 200.294 672.775 199.338 671.934 198.039C671.092 196.741 670.678 195.102 670.691 193.123V163.859ZM698.902 201.875C696.969 201.875 695.246 201.54 693.735 200.872C692.223 200.19 691.027 199.187 690.145 197.863C689.278 196.525 688.844 194.86 688.844 192.867C688.844 191.189 689.153 189.78 689.771 188.639C690.389 187.499 691.23 186.58 692.295 185.886C693.36 185.19 694.569 184.666 695.923 184.312C697.291 183.959 698.724 183.709 700.223 183.565C701.984 183.381 703.404 183.211 704.482 183.053C705.56 182.883 706.342 182.634 706.829 182.306C707.315 181.978 707.559 181.494 707.559 180.851V180.733C707.559 179.488 707.165 178.523 706.376 177.842C705.6 177.16 704.496 176.819 703.062 176.819C701.551 176.819 700.347 177.154 699.454 177.822C698.56 178.478 697.968 179.304 697.679 180.3L689.909 179.671C690.303 177.835 691.079 176.249 692.236 174.911C693.393 173.561 694.885 172.526 696.712 171.805C698.553 171.07 700.683 170.703 703.102 170.703C704.785 170.703 706.395 170.899 707.933 171.293C709.485 171.686 710.859 172.296 712.055 173.122C713.264 173.948 714.217 175.01 714.915 176.308C715.611 177.593 715.96 179.134 715.96 180.929V201.304H707.992V197.115H707.756C707.27 198.059 706.619 198.891 705.804 199.613C704.988 200.321 704.009 200.878 702.865 201.284C701.722 201.678 700.4 201.875 698.902 201.875ZM701.307 196.092C702.543 196.092 703.634 195.85 704.581 195.364C705.528 194.867 706.27 194.198 706.809 193.358C707.348 192.52 707.618 191.57 707.618 190.507V187.302C707.355 187.472 706.994 187.63 706.534 187.774C706.087 187.905 705.58 188.03 705.015 188.147C704.45 188.252 703.884 188.35 703.319 188.442C702.754 188.521 702.241 188.593 701.781 188.658C700.794 188.803 699.933 189.033 699.197 189.346C698.461 189.661 697.889 190.087 697.482 190.625C697.074 191.149 696.87 191.805 696.87 192.592C696.87 193.732 697.284 194.604 698.113 195.207C698.954 195.798 700.019 196.092 701.307 196.092Z" fill="white"/>
</g>
<defs>
<clipPath id="clip0_574_1099">
<rect width="818" height="298" fill="white"/>
</clipPath>
</defs>
</svg>
