<svg width="672" height="339" viewBox="0 0 672 339" fill="none" xmlns="http://www.w3.org/2000/svg">
<rect x="2" y="2" width="668" height="335" rx="58" fill="black"/>
<rect x="2" y="2" width="668" height="335" rx="58" stroke="white" stroke-width="4"/>
<path d="M341.982 153V107.182H360.059C363.534 107.182 366.495 107.846 368.941 109.173C371.387 110.485 373.251 112.312 374.534 114.654C375.831 116.981 376.48 119.665 376.48 122.708C376.48 125.751 375.824 128.435 374.511 130.762C373.199 133.089 371.297 134.901 368.806 136.199C366.331 137.496 363.333 138.145 359.813 138.145H348.291V130.382H358.247C360.111 130.382 361.647 130.061 362.855 129.42C364.078 128.763 364.988 127.861 365.585 126.713C366.196 125.549 366.502 124.214 366.502 122.708C366.502 121.187 366.196 119.859 365.585 118.726C364.988 117.577 364.078 116.69 362.855 116.064C361.632 115.422 360.081 115.102 358.202 115.102H351.669V153H341.982ZM392.124 107.182V153H382.593V107.182H392.124ZM409.557 153.649C407.365 153.649 405.411 153.268 403.696 152.508C401.981 151.732 400.623 150.591 399.624 149.085C398.64 147.564 398.148 145.669 398.148 143.402C398.148 141.493 398.498 139.89 399.199 138.592C399.9 137.295 400.855 136.251 402.063 135.46C403.271 134.67 404.643 134.073 406.179 133.67C407.73 133.268 409.356 132.984 411.056 132.82C413.055 132.612 414.666 132.418 415.889 132.239C417.112 132.045 417.999 131.761 418.551 131.388C419.103 131.016 419.379 130.464 419.379 129.733V129.599C419.379 128.182 418.931 127.086 418.036 126.31C417.156 125.534 415.904 125.147 414.278 125.147C412.563 125.147 411.198 125.527 410.184 126.288C409.17 127.033 408.498 127.973 408.17 129.107L399.356 128.391C399.803 126.303 400.683 124.498 401.996 122.977C403.308 121.44 405.001 120.262 407.074 119.442C409.162 118.607 411.578 118.189 414.323 118.189C416.232 118.189 418.059 118.413 419.804 118.86C421.564 119.308 423.122 120.001 424.48 120.941C425.852 121.88 426.933 123.088 427.724 124.565C428.514 126.027 428.909 127.779 428.909 129.822V153H419.871V148.235H419.602C419.051 149.309 418.312 150.256 417.388 151.076C416.463 151.881 415.352 152.515 414.054 152.978C412.757 153.425 411.258 153.649 409.557 153.649ZM412.287 147.071C413.689 147.071 414.927 146.795 416.001 146.244C417.074 145.677 417.917 144.916 418.529 143.962C419.14 143.007 419.446 141.926 419.446 140.718V137.071C419.148 137.265 418.737 137.444 418.215 137.608C417.708 137.757 417.134 137.899 416.493 138.033C415.851 138.152 415.21 138.264 414.569 138.369C413.927 138.458 413.346 138.54 412.824 138.615C411.705 138.779 410.728 139.04 409.893 139.398C409.058 139.756 408.409 140.24 407.947 140.852C407.484 141.449 407.253 142.194 407.253 143.089C407.253 144.387 407.723 145.379 408.662 146.065C409.617 146.736 410.825 147.071 412.287 147.071ZM440.957 165.886C439.749 165.886 438.615 165.789 437.556 165.596C436.512 165.417 435.647 165.185 434.961 164.902L437.109 157.788C438.227 158.131 439.234 158.317 440.129 158.347C441.039 158.377 441.822 158.168 442.478 157.721C443.149 157.273 443.694 156.512 444.111 155.439L444.67 153.984L432.343 118.636H442.366L449.48 143.872H449.838L457.02 118.636H467.11L453.754 156.714C453.112 158.563 452.24 160.174 451.136 161.546C450.047 162.933 448.668 164 446.997 164.745C445.327 165.506 443.313 165.886 440.957 165.886ZM502.094 153.671C498.619 153.671 495.614 152.933 493.078 151.456C490.558 149.965 488.611 147.892 487.239 145.237C485.867 142.567 485.181 139.472 485.181 135.952C485.181 132.403 485.867 129.3 487.239 126.646C488.611 123.976 490.558 121.903 493.078 120.426C495.614 118.935 498.619 118.189 502.094 118.189C505.569 118.189 508.567 118.935 511.088 120.426C513.623 121.903 515.577 123.976 516.949 126.646C518.321 129.3 519.008 132.403 519.008 135.952C519.008 139.472 518.321 142.567 516.949 145.237C515.577 147.892 513.623 149.965 511.088 151.456C508.567 152.933 505.569 153.671 502.094 153.671ZM502.139 146.288C503.72 146.288 505.04 145.841 506.099 144.946C507.158 144.036 507.956 142.798 508.493 141.232C509.044 139.666 509.32 137.884 509.32 135.885C509.32 133.887 509.044 132.104 508.493 130.538C507.956 128.972 507.158 127.734 506.099 126.825C505.04 125.915 503.72 125.46 502.139 125.46C500.543 125.46 499.201 125.915 498.112 126.825C497.038 127.734 496.225 128.972 495.673 130.538C495.136 132.104 494.868 133.887 494.868 135.885C494.868 137.884 495.136 139.666 495.673 141.232C496.225 142.798 497.038 144.036 498.112 144.946C499.201 145.841 500.543 146.288 502.139 146.288ZM534.735 133.134V153H525.205V118.636H534.288V124.699H534.69C535.451 122.701 536.726 121.12 538.516 119.956C540.306 118.778 542.476 118.189 545.026 118.189C547.413 118.189 549.493 118.711 551.268 119.755C553.043 120.799 554.423 122.29 555.407 124.229C556.391 126.153 556.884 128.45 556.884 131.12V153H547.353V132.82C547.368 130.717 546.831 129.077 545.742 127.898C544.653 126.705 543.155 126.109 541.245 126.109C539.963 126.109 538.829 126.385 537.845 126.936C536.875 127.488 536.115 128.294 535.563 129.353C535.026 130.397 534.75 131.657 534.735 133.134ZM360.081 194.636V201.795H339.387V194.636H360.081ZM344.085 186.403H353.616V218.44C353.616 219.32 353.75 220.006 354.018 220.499C354.287 220.976 354.66 221.311 355.137 221.505C355.629 221.699 356.196 221.796 356.837 221.796C357.285 221.796 357.732 221.759 358.18 221.684C358.627 221.595 358.97 221.528 359.209 221.483L360.708 228.575C360.23 228.724 359.559 228.896 358.694 229.089C357.829 229.298 356.778 229.425 355.54 229.47C353.243 229.559 351.229 229.254 349.499 228.553C347.784 227.852 346.449 226.763 345.495 225.286C344.54 223.81 344.07 221.945 344.085 219.693V186.403ZM376.558 209.134V229H367.028V183.182H376.29V200.699H376.693C377.468 198.671 378.721 197.082 380.451 195.934C382.181 194.771 384.351 194.189 386.961 194.189C389.348 194.189 391.428 194.711 393.203 195.755C394.993 196.784 396.38 198.268 397.365 200.207C398.364 202.131 398.856 204.435 398.841 207.12V229H389.311V208.82C389.325 206.702 388.789 205.054 387.7 203.876C386.626 202.698 385.119 202.109 383.181 202.109C381.883 202.109 380.735 202.385 379.735 202.936C378.751 203.488 377.975 204.294 377.409 205.353C376.857 206.397 376.573 207.657 376.558 209.134ZM422.002 229.671C418.467 229.671 415.424 228.955 412.874 227.523C410.339 226.077 408.385 224.033 407.013 221.393C405.64 218.739 404.954 215.599 404.954 211.975C404.954 208.44 405.64 205.338 407.013 202.668C408.385 199.998 410.316 197.918 412.807 196.426C415.313 194.935 418.251 194.189 421.622 194.189C423.889 194.189 425.999 194.554 427.953 195.285C429.922 196.001 431.637 197.082 433.098 198.529C434.575 199.976 435.723 201.795 436.544 203.988C437.364 206.165 437.774 208.716 437.774 211.639V214.257H408.758V208.35H428.803C428.803 206.978 428.505 205.763 427.908 204.704C427.312 203.645 426.484 202.817 425.425 202.221C424.381 201.609 423.165 201.303 421.778 201.303C420.331 201.303 419.049 201.639 417.93 202.31C416.826 202.966 415.961 203.854 415.335 204.972C414.709 206.076 414.388 207.306 414.373 208.664V214.279C414.373 215.979 414.686 217.449 415.313 218.686C415.954 219.924 416.856 220.879 418.02 221.55C419.183 222.221 420.563 222.557 422.158 222.557C423.217 222.557 424.187 222.408 425.067 222.109C425.947 221.811 426.7 221.364 427.326 220.767C427.953 220.17 428.43 219.44 428.758 218.575L437.573 219.156C437.125 221.274 436.208 223.124 434.821 224.705C433.449 226.271 431.674 227.494 429.497 228.374C427.334 229.239 424.836 229.671 422.002 229.671ZM469.067 229L455.957 183.182H466.539L474.123 215.017H474.504L482.871 183.182H491.932L500.276 215.085H500.679L508.263 183.182H518.845L505.735 229H496.294L487.569 199.044H487.211L478.508 229H469.067ZM535.82 229.671C532.285 229.671 529.243 228.955 526.692 227.523C524.157 226.077 522.203 224.033 520.831 221.393C519.459 218.739 518.773 215.599 518.773 211.975C518.773 208.44 519.459 205.338 520.831 202.668C522.203 199.998 524.134 197.918 526.625 196.426C529.131 194.935 532.069 194.189 535.44 194.189C537.707 194.189 539.817 194.554 541.771 195.285C543.74 196.001 545.455 197.082 546.917 198.529C548.393 199.976 549.542 201.795 550.362 203.988C551.182 206.165 551.593 208.716 551.593 211.639V214.257H522.576V208.35H542.621C542.621 206.978 542.323 205.763 541.726 204.704C541.13 203.645 540.302 202.817 539.243 202.221C538.199 201.609 536.984 201.303 535.597 201.303C534.15 201.303 532.867 201.639 531.748 202.31C530.645 202.966 529.78 203.854 529.153 204.972C528.527 206.076 528.206 207.306 528.191 208.664V214.279C528.191 215.979 528.505 217.449 529.131 218.686C529.772 219.924 530.675 220.879 531.838 221.55C533.001 222.221 534.381 222.557 535.977 222.557C537.036 222.557 538.005 222.408 538.885 222.109C539.765 221.811 540.518 221.364 541.145 220.767C541.771 220.17 542.248 219.44 542.577 218.575L551.391 219.156C550.944 221.274 550.027 223.124 548.639 224.705C547.267 226.271 545.492 227.494 543.315 228.374C541.152 229.239 538.654 229.671 535.82 229.671ZM557.991 229V183.182H567.522V200.408H567.812C568.23 199.484 568.834 198.544 569.625 197.589C570.43 196.62 571.474 195.815 572.757 195.173C574.054 194.517 575.665 194.189 577.589 194.189C580.095 194.189 582.407 194.845 584.524 196.158C586.642 197.455 588.335 199.417 589.603 202.042C590.871 204.652 591.505 207.925 591.505 211.863C591.505 215.696 590.886 218.933 589.648 221.572C588.425 224.197 586.754 226.189 584.636 227.546C582.533 228.888 580.177 229.559 577.567 229.559C575.717 229.559 574.144 229.254 572.846 228.642C571.563 228.031 570.512 227.262 569.692 226.338C568.871 225.398 568.245 224.451 567.812 223.496H567.387V229H557.991ZM567.32 211.818C567.32 213.862 567.604 215.644 568.17 217.165C568.737 218.686 569.557 219.872 570.631 220.722C571.705 221.558 573.01 221.975 574.546 221.975C576.098 221.975 577.41 221.55 578.484 220.7C579.558 219.835 580.371 218.642 580.922 217.12C581.489 215.584 581.773 213.817 581.773 211.818C581.773 209.835 581.497 208.089 580.945 206.583C580.393 205.077 579.58 203.898 578.506 203.048C577.432 202.198 576.112 201.773 574.546 201.773C572.995 201.773 571.683 202.183 570.609 203.004C569.55 203.824 568.737 204.987 568.17 206.494C567.604 208 567.32 209.775 567.32 211.818Z" fill="white"/>
<path d="M282.594 63.9375H88.4062C76.0324 63.9375 66 73.9699 66 86.3438V250.656C66 263.03 76.0324 273.062 88.4062 273.062H282.594C294.968 273.062 305 263.03 305 250.656V86.3438C305 73.9699 294.968 63.9375 282.594 63.9375ZM273.568 80.2754C278.465 80.2754 282.437 84.2469 282.437 89.1445C282.437 94.0422 278.465 98.0137 273.568 98.0137C268.67 98.0137 264.699 94.0422 264.699 89.1445C264.699 84.2469 268.67 80.2754 273.568 80.2754ZM240.659 80.2754C245.556 80.2754 249.528 84.2469 249.528 89.1445C249.528 94.0422 245.556 98.0137 240.659 98.0137C235.761 98.0137 231.789 94.0422 231.789 89.1445C231.789 84.2469 235.761 80.2754 240.659 80.2754ZM207.749 80.2754C212.647 80.2754 216.619 84.2469 216.619 89.1445C216.619 94.0422 212.647 98.0137 207.749 98.0137C202.852 98.0137 198.88 94.0422 198.88 89.1445C198.88 84.2469 202.852 80.2754 207.749 80.2754ZM286.328 250.656C286.328 252.713 284.654 254.391 282.594 254.391H88.4062C86.3458 254.391 84.6719 252.713 84.6719 250.656V112.484H286.328V250.656Z" fill="white"/>
<path d="M111.502 201.482H118.985C119.441 201.482 119.744 201.187 119.886 200.753L126.316 180.214H126.473L132.742 200.753C132.895 201.187 133.201 201.482 133.65 201.482H141.206C141.665 201.482 141.968 201.187 142.111 200.753L153.835 166.837C153.981 166.403 153.748 166.108 153.226 166.108H143.931C143.394 166.108 143.095 166.334 142.95 166.837L137.202 187.887H137.056L130.63 166.837C130.473 166.334 130.174 166.108 129.645 166.108H123.296C122.764 166.108 122.384 166.334 122.242 166.837L115.962 187.887H115.809L109.765 166.837C109.612 166.334 109.321 166.108 108.708 166.108H99.4161C98.953 166.108 98.7374 166.404 98.876 166.837L110.601 200.753C110.75 201.187 111.053 201.482 111.502 201.482Z" fill="white"/>
<path d="M170.599 201.482H178.093C178.541 201.482 178.848 201.187 178.994 200.753L185.42 180.214H185.573L191.842 200.753C191.999 201.187 192.301 201.482 192.754 201.482H200.306C200.766 201.482 201.065 201.187 201.218 200.753L212.935 166.837C213.082 166.403 212.855 166.108 212.33 166.108H203.038C202.498 166.108 202.195 166.334 202.049 166.837L196.302 187.887H196.152L189.73 166.837C189.573 166.334 189.274 166.108 188.749 166.108H182.396C181.867 166.108 181.488 166.334 181.342 166.837L175.066 187.887H174.916L168.866 166.837C168.72 166.334 168.414 166.108 167.812 166.108H158.516C158.053 166.108 157.831 166.404 157.987 166.837L169.701 200.753C169.852 201.187 170.154 201.482 170.599 201.482Z" fill="white"/>
<path d="M229.787 201.482H237.278C237.723 201.482 238.025 201.187 238.175 200.753L244.601 180.214H244.758L251.027 200.753C251.18 201.187 251.479 201.482 251.931 201.482H259.491C259.947 201.482 260.25 201.187 260.399 200.753L272.124 166.837C272.263 166.403 272.037 166.108 271.519 166.108H262.212C261.683 166.108 261.38 166.334 261.235 166.837L255.491 187.887H255.342L248.916 166.837C248.759 166.334 248.46 166.108 247.935 166.108H241.578C241.049 166.108 240.673 166.334 240.527 166.837L234.243 187.887H234.102L228.055 166.837C227.898 166.334 227.606 166.108 226.997 166.108H217.697C217.245 166.108 217.019 166.404 217.165 166.837L228.89 200.753C229.033 201.187 229.335 201.482 229.787 201.482Z" fill="white"/>
</svg>
